<svg width="375" height="467" viewBox="0 0 375 467" fill="none" xmlns="http://www.w3.org/2000/svg">
<g clip-path="url(#clip0)">
<path d="M54.9819 131.984C53.0983 131.984 51.1138 130.915 50.1912 129.278L42.105 114.881C41.5907 113.965 41.916 112.806 42.8317 112.292C43.7469 111.777 44.9065 112.103 45.4206 113.018L53.5055 127.413C53.7484 127.844 54.6363 128.303 55.1758 128.161C55.6229 128.044 55.7817 127.083 55.7817 126.296V113.949C55.7817 112.899 56.6329 112.048 57.683 112.048C58.7331 112.048 59.5843 112.899 59.5843 113.949V126.296C59.5843 130.484 57.1758 131.568 56.1405 131.839C55.7659 131.937 55.3761 131.984 54.9819 131.984Z" fill="#365E7D"/>
<path fill-rule="evenodd" clip-rule="evenodd" d="M-26.5852 113.949H57.6832C61.1544 113.949 64.0002 111.104 64.0002 107.632V70.4486C64 55.1194 53.1197 36.9516 31.0141 36.9516H9.51949H-51.1485H-53.2039C-56.6822 36.9516 -59.5209 39.7974 -59.5209 43.2685V107.632C-59.5209 111.103 -56.6822 113.949 -53.2039 113.949H-26.5852V113.949Z" fill="#FFD772"/>
<path fill-rule="evenodd" clip-rule="evenodd" d="M9.5195 36.9516C9.5195 31.9711 3.40383 24.0156 -9.63249 24.0156H-43.495C-47.7061 24.0156 -51.1485 27.8965 -51.1485 32.6395V36.9516H9.5195Z" fill="#365E7D"/>
<path fill-rule="evenodd" clip-rule="evenodd" d="M64 70.4486C64 64.8574 62.5554 58.8997 59.6451 53.5745H50.8849C49.7854 53.5745 48.88 54.4727 48.88 55.5796V73.4455C48.88 74.5451 49.7854 75.4507 50.8849 75.4507H64V70.4486Z" fill="#90D8F9"/>
<path fill-rule="evenodd" clip-rule="evenodd" d="M64 107.632V75.4505H56.3319V107.632C56.3319 111.103 53.4861 113.949 50.015 113.949H57.683C61.1541 113.949 64 111.104 64 107.632Z" fill="#FDB440"/>
<path fill-rule="evenodd" clip-rule="evenodd" d="M59.6451 53.5745C54.5786 44.2893 45.0638 36.9516 31.0141 36.9516H23.3461C37.3956 36.9516 46.9105 44.2891 51.9769 53.5742H59.6451V53.5745Z" fill="#FDB440"/>
<path fill-rule="evenodd" clip-rule="evenodd" d="M64 70.4486C64 64.8574 62.5554 58.8997 59.6451 53.5745H51.9771C54.8877 58.8997 56.332 64.8576 56.332 70.4486V75.4505H64V70.4486Z" fill="#75CEF8"/>
<path fill-rule="evenodd" clip-rule="evenodd" d="M9.51952 36.9516C9.51952 31.9711 3.40385 24.0156 -9.63247 24.0156H-23.6101C-10.5812 24.0156 -4.45811 31.9714 -4.45811 36.9516H9.51952Z" fill="#2B4D66"/>
<path fill-rule="evenodd" clip-rule="evenodd" d="M8.59247 67.7536L23.7127 64.3256L39.5661 67.7536V113.949H8.59247V67.7536Z" fill="#365E7D"/>
<path fill-rule="evenodd" clip-rule="evenodd" d="M8.59247 67.7536V73.5174H33.4863V113.949H39.5661V67.7536C29.2393 67.7536 18.9193 67.7536 8.59247 67.7536Z" fill="#2B4D66"/>
<path fill-rule="evenodd" clip-rule="evenodd" d="M38.8259 58.8709H8.59251C7.19126 58.8709 6.0484 60.0206 6.0484 61.415V65.2095C6.0484 66.5104 7.04016 67.5883 8.30484 67.732C8.39835 67.7463 8.49162 67.7536 8.59227 67.7536H38.4663H38.8256C40.2269 67.7536 41.3697 66.6039 41.3697 65.2095V61.415C41.37 60.0209 40.2274 58.8709 38.8259 58.8709Z" fill="#CCF49E"/>
<path fill-rule="evenodd" clip-rule="evenodd" d="M41.37 61.415C41.37 60.0209 40.2273 58.8709 38.8258 58.8709H31.4526C32.7247 59.0075 33.7236 60.0925 33.7236 61.4005V65.195C33.7236 66.5891 32.5809 67.7391 31.1794 67.7391H38.4665V67.7534H38.8258C40.2271 67.7534 41.37 66.6036 41.37 65.2093V61.415Z" fill="#B3E59E"/>
<path d="M27.428 50.2224H22.3905C21.3401 50.2224 20.4891 49.3712 20.4891 48.3211C20.4891 47.271 21.3404 46.4198 22.3905 46.4198H27.4282C28.4786 46.4198 29.3296 47.271 29.3296 48.3211C29.3296 49.3712 28.4783 50.2224 27.428 50.2224Z" fill="#365E7D"/>
<path d="M15.3118 92.0844C14.2615 92.0844 13.4105 91.2332 13.4105 90.1831V88.0775C13.4105 87.0275 14.2617 86.1762 15.3118 86.1762C16.3619 86.1762 17.2131 87.0275 17.2131 88.0775V90.1831C17.2131 91.2332 16.3622 92.0844 15.3118 92.0844Z" fill="#FFD772"/>
</g>
<g clip-path="url(#clip1)">
<path fill-rule="evenodd" clip-rule="evenodd" d="M177.233 450.27H50.7665C50.3433 450.27 50 449.927 50 449.504V422.3C147.038 427.492 124.195 395.476 178 401.532V449.504C178 449.927 177.657 450.27 177.233 450.27Z" fill="#FED1A3"/>
<path d="M56.8478 377.762H54.2488C53.1905 377.762 52.3328 376.905 52.3328 375.846C52.3328 374.788 53.1905 373.93 54.2488 373.93H56.8478C57.906 373.93 58.7638 374.788 58.7638 375.846C58.7638 376.905 57.906 377.762 56.8478 377.762Z" fill="#FFD772"/>
<path d="M61.4107 366.731C60.919 366.731 60.4275 366.543 60.053 366.167L58.2205 364.327C57.4737 363.577 57.4762 362.364 58.226 361.618C58.976 360.871 60.1887 360.873 60.9357 361.623L62.7682 363.463C63.515 364.213 63.5125 365.426 62.7627 366.173C62.389 366.545 61.8997 366.731 61.4107 366.731Z" fill="#FFD772"/>
<path d="M72.4417 362.161C71.3835 362.161 70.5257 361.303 70.5257 360.245V357.646C70.5257 356.587 71.3835 355.73 72.4417 355.73C73.5 355.73 74.3577 356.587 74.3577 357.646V360.245C74.3577 361.303 73.5 362.161 72.4417 362.161Z" fill="#FFD772"/>
<path d="M90.642 377.762H88.043C86.9848 377.762 86.127 376.905 86.127 375.846C86.127 374.788 86.9848 373.93 88.043 373.93H90.642C91.7003 373.93 92.558 374.788 92.558 375.846C92.558 376.905 91.7003 377.762 90.642 377.762Z" fill="#FFD772"/>
<path d="M83.4727 366.731C82.9825 366.731 82.492 366.544 82.1177 366.17C81.3695 365.422 81.3695 364.209 82.1177 363.46L83.9577 361.62C84.7062 360.872 85.919 360.872 86.6675 361.62C87.4157 362.369 87.4157 363.582 86.6675 364.33L84.8277 366.17C84.4535 366.544 83.963 366.731 83.4727 366.731Z" fill="#FFD772"/>
<path fill-rule="evenodd" clip-rule="evenodd" d="M82.093 378.059C82.093 373.058 78.0412 369.006 73.0402 369.006C68.0392 369.006 63.9875 373.058 63.9875 378.059C63.9875 383.06 68.0392 387.112 73.0402 387.112C78.0412 387.112 82.093 383.06 82.093 378.059Z" fill="#FFD772"/>
<path fill-rule="evenodd" clip-rule="evenodd" d="M82.093 378.059C82.093 373.058 78.0413 369.006 73.0403 369.006C71.7553 369.006 70.5215 369.276 69.412 369.765C72.2445 371.291 74.172 374.291 74.172 377.73C74.172 381.446 71.938 384.629 68.7478 386.031C70.0253 386.717 71.4855 387.111 73.0405 387.111C78.0413 387.112 82.093 383.06 82.093 378.059Z" fill="#FDB440"/>
<path fill-rule="evenodd" clip-rule="evenodd" d="M50.7665 385.432H177.234C177.657 385.432 178 385.775 178 386.199V406.203C124.196 400.728 147.039 429.675 50.0003 424.981V386.199C50 385.775 50.343 385.432 50.7665 385.432Z" fill="#90D8F9"/>
<path fill-rule="evenodd" clip-rule="evenodd" d="M169.867 397.807L157.048 394.23C157.048 394.23 152.937 389.733 145.17 387.338C144.834 388.499 144.162 389.485 143.279 390.222C143.264 390.229 143.25 390.244 143.235 390.259C143.228 390.259 143.228 390.266 143.221 390.266C143.213 390.273 143.206 390.273 143.206 390.28C142.914 390.514 142.6 390.718 142.272 390.894C148.01 395.274 152.419 400.487 155.055 406.225C160.954 405.349 168.21 405.21 178 406.203V386.199C178 385.775 177.657 385.432 177.234 385.432H165.392C167.086 387.659 168.415 390.506 169.232 394.04C169.502 395.216 169.714 396.471 169.867 397.807Z" fill="#75CEF8"/>
<path fill-rule="evenodd" clip-rule="evenodd" d="M178 406.203C168.21 405.21 160.953 405.349 155.054 406.225C156.872 410.175 157.851 414.38 157.851 418.731C157.851 431.317 149.696 442.597 136.781 450.27H177.233C177.657 450.27 178 449.927 178 449.503V406.203Z" fill="#FFBC85"/>
<path d="M59.784 400.464C58.6448 400.464 57.3235 400.063 55.6525 399.001C54.7595 398.433 54.4955 397.249 55.063 396.356C55.6303 395.463 56.8147 395.199 57.7078 395.766C59.1837 396.704 59.7205 396.639 59.895 396.616C60.3875 396.556 61.0305 396.145 61.921 395.576C62.2432 395.37 62.588 395.15 62.964 394.922C64.9132 393.735 68.0657 392.895 72.0187 395.626C74.3555 397.1 75.3657 396.484 78.0452 394.851L78.1912 394.762C82.0395 392.424 86.3472 394.083 87.9785 396.178C88.6287 397.013 88.4787 398.217 87.6437 398.867C86.8087 399.517 85.605 399.367 84.955 398.532C84.4442 397.876 82.2752 396.765 80.183 398.036L80.0397 398.123C77.2205 399.841 74.305 401.618 69.9327 398.84C69.9102 398.826 69.8883 398.811 69.8665 398.796C67.3995 397.08 65.8825 397.631 64.9558 398.195C64.6045 398.409 64.2842 398.613 63.9845 398.805C62.6325 399.668 61.3882 400.463 59.784 400.464Z" fill="#75CEF8"/>
<path d="M79.5505 412.953C78.4105 412.953 77.0893 412.55 75.4183 411.482C74.5268 410.913 74.2658 409.728 74.8353 408.836C75.4048 407.945 76.5898 407.684 77.4815 408.253C78.9485 409.19 79.4835 409.125 79.6605 409.104C80.1523 409.044 80.794 408.634 81.6823 408.067C82.0053 407.861 82.3508 407.641 82.7275 407.412C84.6693 406.229 87.8175 405.39 91.7798 408.109C94.1118 409.587 95.12 408.974 97.796 407.346L97.9625 407.245C101.799 404.918 106.104 406.57 107.738 408.658C108.39 409.492 108.243 410.696 107.41 411.348C106.576 412 105.372 411.853 104.72 411.019C104.208 410.364 102.038 409.255 99.9515 410.52L99.7873 410.62C96.9703 412.333 94.0565 414.105 89.6925 411.323C89.6728 411.31 89.6533 411.297 89.634 411.284C87.1563 409.573 85.6415 410.124 84.718 410.686C84.365 410.9 84.0443 411.105 83.744 411.297C82.3938 412.159 81.1508 412.953 79.5505 412.953Z" fill="#75CEF8"/>
<path fill-rule="evenodd" clip-rule="evenodd" d="M144.119 427.258H126.043C125.969 425.283 125.969 423.188 126.035 421.035C126.05 420.401 126.073 419.762 126.101 419.119C126.129 418.482 126.163 417.844 126.201 417.203C126.321 415.11 126.489 412.993 126.699 410.9C126.76 410.259 126.827 409.621 126.896 408.984C126.965 408.341 127.039 407.702 127.113 407.068C127.373 404.889 127.665 402.772 127.977 400.766C128.076 400.115 128.178 399.476 128.283 398.85C128.39 398.196 128.5 397.555 128.607 396.934C128.98 394.844 129.364 392.949 129.729 391.345C129.795 391.36 129.862 391.383 129.926 391.396C130.904 388.105 138.591 387.681 139.715 391.58C139.57 393.342 139.503 395.131 139.506 396.934C139.506 397.57 139.516 398.209 139.534 398.85C139.549 399.489 139.574 400.127 139.608 400.766C139.71 402.869 139.894 404.974 140.144 407.068C140.218 407.707 140.3 408.346 140.387 408.984C140.474 409.626 140.566 410.264 140.665 410.9C140.99 413.034 141.371 415.141 141.787 417.203C141.915 417.846 142.047 418.485 142.183 419.119C142.321 419.762 142.461 420.401 142.604 421.035C143.092 423.188 143.606 425.273 144.119 427.258Z" fill="#FFD772"/>
<path fill-rule="evenodd" clip-rule="evenodd" d="M139.533 398.851C139.468 396.398 139.519 393.967 139.716 391.58C139.657 391.361 139.57 391.156 139.468 390.959C138.884 389.871 137.715 389.214 136.387 388.937C136.38 388.937 136.38 388.937 136.372 388.937C135.898 388.842 135.394 388.791 134.89 388.791C134.883 388.93 134.868 389.076 134.861 389.229C134.839 389.623 134.817 390.068 134.803 390.543C134.722 393.179 134.781 396.895 134.832 398.851C134.919 402.232 135.226 405.619 135.686 408.985C136.146 412.387 136.767 415.775 137.482 419.118C138.088 421.951 138.752 424.689 139.417 427.259H144.118C143.454 424.689 142.79 421.951 142.184 419.118C141.483 415.848 140.855 412.438 140.388 408.985C139.928 405.626 139.621 402.224 139.533 398.851Z" fill="#FDB440"/>
<path fill-rule="evenodd" clip-rule="evenodd" d="M126.75 382.096C120.618 379.497 115.354 379.504 113.149 379.665C106.849 381.636 101.68 387.206 100.476 397.807L113.295 394.23C113.295 394.23 117.595 389.521 125.728 387.177C127.59 385.469 128.218 383.593 126.75 382.096Z" fill="#CCF49E"/>
<path fill-rule="evenodd" clip-rule="evenodd" d="M170.604 374.715C163.231 367.195 155.887 365.939 149.805 368.173C144.52 370.115 140.19 374.693 137.628 380.074C140.614 386.089 149.776 380.767 157.193 379.665L170.604 374.715Z" fill="#CCF49E"/>
<path fill-rule="evenodd" clip-rule="evenodd" d="M169.867 397.807C168.663 387.206 163.494 381.636 157.193 379.665C155.047 379.504 149.988 379.497 144.045 381.906C144.096 381.972 142.665 382.49 142.709 382.556C137.737 387.747 144.33 386.98 145.169 387.338C152.937 389.733 157.047 394.23 157.047 394.23L169.867 397.807Z" fill="#CCF49E"/>
<path fill-rule="evenodd" clip-rule="evenodd" d="M130.379 375.679C127.838 372.225 124.473 369.473 120.611 368.101C114.478 365.918 107.09 367.217 99.7385 374.715L113.15 379.665C115.581 381.425 121.041 384.009 126.75 383.075C129.364 383.922 132.029 382.476 132.919 379.928C132.211 378.439 131.357 377.007 130.379 375.679Z" fill="#CCF49E"/>
<path fill-rule="evenodd" clip-rule="evenodd" d="M157.048 394.23C157.048 394.23 152.748 389.521 144.615 387.177C144.739 386.703 144.804 386.206 144.804 385.688C144.804 384.929 144.659 384.199 144.396 383.527C151.12 385.272 156.953 388.331 159.085 390.776L169.232 394.04C169.502 395.215 169.714 396.471 169.868 397.807L157.048 394.23Z" fill="#B3E59E"/>
<path fill-rule="evenodd" clip-rule="evenodd" d="M157.194 379.665L170.605 374.715C169.561 373.649 168.517 372.714 167.48 371.89L155.244 375.956C153.098 375.803 146.666 375.679 141.125 380.001C142.257 380.322 143.293 381.001 144.045 381.906C149.988 379.497 155.047 379.504 157.194 379.665Z" fill="#B3E59E"/>
<path fill-rule="evenodd" clip-rule="evenodd" d="M149.806 368.173L156.858 356.558C146.206 354.623 139.468 357.85 135.109 364.399C133.058 367.487 131.532 371.305 130.379 375.678C131.357 377.007 130.612 381.373 131.328 382.862C132.313 383.111 135.445 383.702 136.139 384.381C140.972 379.862 141.556 371.196 149.806 368.173Z" fill="#CCF49E"/>
<path fill-rule="evenodd" clip-rule="evenodd" d="M137.628 380.074C140.191 374.693 144.52 370.115 149.805 368.173L156.858 356.558C154.398 356.113 152.141 355.937 150.083 356.018L144.41 366.669C136.504 371.663 133.277 380.03 133.299 380.037C134.131 380.314 134.861 380.774 135.467 381.366C136.081 380.789 136.818 380.344 137.628 380.074Z" fill="#B3E59E"/>
<path fill-rule="evenodd" clip-rule="evenodd" d="M145.403 385.681C145.403 384.33 144.958 383.089 144.199 382.096C143.118 380.687 141.417 379.774 139.497 379.774C139.001 379.774 138.512 379.84 138.045 379.957C137.066 380.205 136.183 380.694 135.468 381.366C133.212 383.797 133.358 387.783 135.475 390.002C136.533 390.988 137.942 391.587 139.497 391.587C142.191 391.587 144.549 389.761 145.221 387.155C145.338 386.681 145.403 386.192 145.403 385.681Z" fill="#CE9874"/>
<path fill-rule="evenodd" clip-rule="evenodd" d="M135.475 390.003C136.628 388.922 137.351 387.389 137.351 385.688C137.351 382.936 135.445 380.548 132.773 379.935C132.343 379.833 131.897 379.782 131.445 379.782C129.532 379.782 127.831 380.694 126.75 382.096C125.991 383.096 125.538 384.337 125.538 385.688C125.538 386.206 125.604 386.703 125.728 387.177C126.239 389.17 127.772 390.754 129.729 391.346C130.276 391.506 130.846 391.594 131.444 391.594C133 391.594 134.423 390.988 135.475 390.003Z" fill="#CE9874"/>
<path fill-rule="evenodd" clip-rule="evenodd" d="M129.919 379.979C129.758 380.022 129.597 380.074 129.444 380.132C130.495 380.409 131.423 380.971 132.153 381.716C133.197 382.789 133.832 384.257 133.832 385.841C133.832 386.732 133.635 387.571 133.284 388.331C132.963 389.024 132.511 389.637 131.963 390.156C131.379 390.696 130.685 391.127 129.926 391.397C130.408 391.528 130.919 391.594 131.445 391.594C133 391.594 134.423 390.988 135.475 390.002C139.84 385.921 135.942 378.38 129.919 379.979Z" fill="#C6875E"/>
<path fill-rule="evenodd" clip-rule="evenodd" d="M139.497 379.774C138.884 379.774 138.278 379.869 137.694 380.052C137.84 380.088 137.986 380.118 138.132 380.161C143.739 381.775 143.834 389.689 138.3 391.463C138.76 391.558 139.249 391.602 139.716 391.58C142.33 391.485 144.571 389.681 145.221 387.155C146.163 383.49 143.425 379.774 139.497 379.774Z" fill="#C6875E"/>
<path fill-rule="evenodd" clip-rule="evenodd" d="M129.919 379.979H129.926C129.926 379.979 129.926 379.979 129.919 379.979ZM120.611 368.101C114.478 365.918 107.09 367.217 99.7383 374.715L103.147 375.971C109.141 371.605 114.996 371.065 120.012 372.846C123.757 374.175 127.028 376.796 129.539 380.096C129.663 380.052 129.795 380.015 129.919 379.979H129.926C129.933 379.979 129.948 379.972 129.955 379.972H129.97C129.977 379.964 129.977 379.964 129.977 379.964C131.035 379.694 132.028 379.709 132.919 379.928C132.211 378.439 131.357 377.008 130.378 375.679C127.838 372.225 124.473 369.473 120.611 368.101Z" fill="#B3E59E"/>
<path fill-rule="evenodd" clip-rule="evenodd" d="M113.149 379.665C106.849 381.636 101.68 387.207 100.476 397.807L103.856 396.858C105.849 389.185 110.368 384.936 115.697 383.271C117.45 383.14 121.144 383.111 125.677 384.418C125.86 383.556 126.24 382.775 126.751 382.096C120.618 379.497 115.354 379.504 113.149 379.665Z" fill="#B3E59E"/>
<path d="M140.665 410.9H126.699C126.76 410.259 126.827 409.621 126.896 408.984C126.965 408.341 127.039 407.702 127.113 407.068H140.144C140.218 407.707 140.3 408.346 140.387 408.984C140.474 409.626 140.566 410.264 140.665 410.9Z" fill="#CE9874"/>
<path d="M139.607 400.766H127.976C128.076 400.115 128.178 399.476 128.283 398.85C128.39 398.196 128.5 397.555 128.607 396.934H139.505C139.505 397.57 139.515 398.209 139.533 398.85C139.549 399.489 139.574 400.128 139.607 400.766Z" fill="#CE9874"/>
<path d="M142.604 421.035H126.035C126.05 420.401 126.073 419.762 126.101 419.119C126.129 418.482 126.163 417.844 126.201 417.203H141.787C141.914 417.846 142.047 418.485 142.183 419.119C142.321 419.762 142.461 420.401 142.604 421.035Z" fill="#CE9874"/>
<path d="M148.572 429.174H123.538C122.48 429.174 121.622 428.316 121.622 427.258C121.622 426.2 122.48 425.342 123.538 425.342H148.572C149.63 425.342 150.488 426.2 150.488 427.258C150.488 428.316 149.63 429.174 148.572 429.174Z" fill="#FFBC85"/>
<path d="M71.573 437.975C70.5148 437.975 69.657 437.128 69.657 436.07V436.048C69.657 434.99 70.5148 434.132 71.573 434.132C72.6313 434.132 73.489 434.99 73.489 436.048C73.489 437.106 72.6313 437.975 71.573 437.975Z" fill="#FFBC85"/>
<path d="M108.01 434.003C106.952 434.003 106.094 433.157 106.094 432.098V432.076C106.094 431.018 106.952 430.16 108.01 430.16C109.068 430.16 109.926 431.018 109.926 432.076C109.926 433.135 109.068 434.003 108.01 434.003Z" fill="#FFBC85"/>
<path d="M133.795 440.311C132.737 440.311 131.879 439.465 131.879 438.406V438.384C131.879 437.326 132.737 436.468 133.795 436.468C134.853 436.468 135.711 437.326 135.711 438.384C135.711 439.443 134.853 440.311 133.795 440.311Z" fill="#FFBC85"/>
<path d="M168.633 427.404C167.575 427.404 166.717 426.557 166.717 425.499V425.477C166.717 424.418 167.575 423.561 168.633 423.561C169.692 423.561 170.549 424.418 170.549 425.477C170.549 426.535 169.692 427.404 168.633 427.404Z" fill="#FED1A3"/>
</g>
<g clip-path="url(#clip2)">
<path fill-rule="evenodd" clip-rule="evenodd" d="M98.4644 192.608C98.4644 187.876 94.626 184.037 89.8873 184.037C85.1556 184.037 81.3173 187.876 81.3173 192.608C81.3173 197.347 85.1556 201.185 89.8873 201.185C94.6263 201.185 98.4644 197.347 98.4644 192.608Z" fill="#FFD772"/>
<path fill-rule="evenodd" clip-rule="evenodd" d="M89.8873 201.185C94.626 201.185 98.4644 197.347 98.4644 192.608C98.4644 187.876 94.626 184.037 89.8873 184.037C88.7223 184.037 87.6001 184.273 86.5852 184.702C89.7731 185.946 92.0317 189.055 92.0317 192.686C92.0317 196.246 89.859 199.298 86.7638 200.592C87.7359 200.971 88.7865 201.185 89.8873 201.185Z" fill="#FDB440"/>
<path fill-rule="evenodd" clip-rule="evenodd" d="M16.9675 308.109V286.323C14.7731 285.493 12.8004 284.207 11.1779 282.577C10.4416 282.677 10.7849 282.734 8.91923 282.734C7.05359 282.734 3.17244 281.941 0.778198 280.554V308.109H16.9675V308.109Z" fill="#CE9874"/>
<path fill-rule="evenodd" clip-rule="evenodd" d="M47.0446 308.109V285.236C44.6715 286.587 41.9482 287.359 38.9963 287.359C36.0516 287.359 33.2495 286.565 30.8553 285.179V308.109H47.0446V308.109Z" fill="#CE9874"/>
<path fill-rule="evenodd" clip-rule="evenodd" d="M77.2218 308.109V280.554C74.8273 281.941 70.939 282.734 69.0736 282.734C67.208 282.734 67.5584 282.677 66.8221 282.577C65.1925 284.207 63.2198 285.493 61.0254 286.323V308.109H77.2218Z" fill="#CE9874"/>
<path fill-rule="evenodd" clip-rule="evenodd" d="M16.9675 291.362C14.7731 290.54 12.8004 289.253 11.1779 287.623C10.4416 287.723 9.68409 287.773 8.91923 287.773C6.34607 287.773 3.9159 287.18 1.75027 286.115C1.42149 285.951 1.09271 285.779 0.778198 285.593V290.683C1.75027 290.861 2.75089 290.961 3.7803 290.961C4.54516 290.961 5.2955 290.904 6.03895 290.804C7.66144 292.434 9.63413 293.72 11.8286 294.55V308.109H16.9677V291.362H16.9675Z" fill="#C6875E"/>
<path fill-rule="evenodd" clip-rule="evenodd" d="M38.9963 292.405C36.0301 292.405 33.2495 291.612 30.8553 290.225V295.014C35.001 296.908 39.554 297.937 43.3706 295.765V308.109H47.0446V290.275C44.6717 291.626 41.927 292.405 38.9963 292.405Z" fill="#C6875E"/>
<path fill-rule="evenodd" clip-rule="evenodd" d="M77.2218 308.109V285.593C74.8273 286.98 72.0398 287.774 69.0736 287.774C68.3088 287.774 67.5584 287.724 66.8221 287.623C65.1925 289.253 63.2198 290.54 61.0254 291.362V295.093C64.2061 295.493 69.4309 293.47 72.1399 291.905V308.109H77.2218Z" fill="#C6875E"/>
<path fill-rule="evenodd" clip-rule="evenodd" d="M24.8442 233.672C23.2645 226.331 16.7317 220.827 8.91945 220.827C-0.0794621 220.827 -7.36999 228.125 -7.36999 237.124C-7.36999 238.118 -7.27697 239.097 -7.10544 240.04C-12.123 242.821 -15.5182 248.167 -15.5182 254.3C-15.5182 255.301 -15.4251 256.273 -15.2536 257.224C-20.2641 260.004 -23.6592 265.344 -23.6592 271.484C-23.6592 280.483 -16.3687 287.774 -7.36974 287.774C-4.40358 287.774 -1.62296 286.98 0.778418 285.593C3.17291 286.98 5.95328 287.774 8.91945 287.774C9.68431 287.774 10.4418 287.724 11.1781 287.623C17.4178 282.498 38.682 248.761 24.8442 233.672Z" fill="#95D6A4"/>
<path fill-rule="evenodd" clip-rule="evenodd" d="M55.0286 244.672C55.2001 243.722 55.286 242.749 55.286 241.749C55.286 238.811 54.514 236.052 53.1489 233.672C50.34 228.768 45.0578 225.459 38.9965 225.459C32.9426 225.459 27.6533 228.768 24.8442 233.672C23.4862 236.052 22.7071 238.811 22.7071 241.749C22.7071 242.749 22.8001 243.722 22.9717 244.672C17.954 247.445 14.5589 252.792 14.5589 258.932C14.5589 259.926 14.652 260.905 14.8235 261.848C9.81302 264.629 6.41791 269.975 6.41791 276.108C6.41791 277.859 6.6896 279.539 7.19704 281.119C7.99758 283.599 9.37694 285.822 11.1783 287.623C12.8008 289.253 14.7735 290.54 16.9679 291.362C18.7548 292.034 20.6918 292.405 22.7076 292.405C25.6738 292.405 28.4544 291.612 30.8558 290.225C33.2502 291.612 36.0306 292.405 38.9968 292.405C41.9273 292.405 44.672 291.626 47.045 290.276C47.0807 290.261 47.1093 290.24 47.1452 290.226C49.5397 291.612 52.32 292.406 55.2862 292.406C57.3091 292.406 59.2387 292.034 61.0256 291.362C63.22 290.54 65.1927 289.254 66.8224 287.624C68.6164 285.822 69.996 283.6 70.7965 281.119C71.304 279.539 71.5828 277.86 71.5828 276.108C71.5828 269.976 68.1877 264.629 63.1701 261.849C63.3487 260.905 63.4346 259.926 63.4346 258.932C63.4341 252.792 60.039 247.446 55.0286 244.672Z" fill="#95D6A4"/>
<path fill-rule="evenodd" clip-rule="evenodd" d="M93.5112 254.3C93.5112 248.167 90.1161 242.821 85.1057 240.04C85.2772 239.097 85.3631 238.118 85.3631 237.124C85.3631 228.125 78.0726 220.827 69.0736 220.827C61.2614 220.827 54.7355 226.331 53.1487 233.672C41.5983 245.416 58.9097 280.218 66.8221 287.623C67.5584 287.724 68.3088 287.774 69.0736 287.774C72.0398 287.774 74.8276 286.98 77.2218 285.593C79.6163 286.98 82.3967 287.774 85.3628 287.774C94.3617 287.774 101.659 280.483 101.659 271.484C101.659 265.344 98.2643 260.004 93.2467 257.224C93.4254 256.273 93.5112 255.301 93.5112 254.3Z" fill="#95D6A4"/>
<path fill-rule="evenodd" clip-rule="evenodd" d="M63.4342 258.932C63.4342 252.792 60.039 247.446 55.0286 244.672C55.2001 243.722 55.286 242.749 55.286 241.749C55.286 238.811 54.514 236.052 53.1489 233.672C50.34 228.768 45.0578 225.459 38.9966 225.459C35.38 225.459 32.0348 226.638 29.3329 228.633C35.3369 228.683 43.3212 231.285 46.1087 236.153C47.4666 238.533 48.2457 241.292 48.2457 244.23C48.2457 245.231 48.1598 246.203 47.9883 247.154C48.1884 247.261 48.3885 247.382 48.5817 247.497C53.2633 250.363 56.3939 255.524 56.3939 261.413C56.3939 262.407 56.3009 263.386 56.1294 264.33C61.147 267.11 64.5349 272.457 64.5349 278.59C64.5349 279.211 64.0989 282.514 63.7843 283.507C63.7772 283.536 62.3656 288.164 55.1497 292.405C55.1927 292.38 55.2427 292.405 55.2855 292.405C57.3084 292.405 59.238 292.033 61.0249 291.361C63.2193 290.539 65.192 289.253 66.8216 287.623C68.6157 285.822 69.9953 283.599 70.7958 281.118C71.3032 279.539 71.5821 277.859 71.5821 276.108C71.5821 269.975 68.187 264.628 63.1694 261.848C63.3483 260.905 63.4342 259.926 63.4342 258.932Z" fill="#78C2A4"/>
<path fill-rule="evenodd" clip-rule="evenodd" d="M93.5112 254.3C93.5112 248.167 90.1161 242.821 85.1056 240.04C85.2772 239.097 85.3631 238.118 85.3631 237.124C85.3631 234.186 84.5911 231.427 83.226 229.047C80.4171 224.137 75.1349 220.827 69.0736 220.827C65.457 220.827 62.1119 222.006 59.41 224.008C65.414 224.058 74.4343 225.601 77.2218 230.476C78.5797 232.856 79.3589 235.615 79.3589 238.553C79.3589 239.547 79.273 240.526 79.1014 241.469C79.3015 241.584 79.5016 241.698 79.6948 241.819C84.3765 244.679 87.507 249.839 87.507 255.729C87.507 256.73 87.414 257.702 87.2425 258.653C92.2601 261.433 95.648 266.772 95.648 272.912C95.648 273.534 95.6195 274.142 95.5479 274.75C95.4263 275.807 95.212 276.837 94.8975 277.823C94.8903 277.859 94.8761 277.887 94.8689 277.923C94.6903 278.466 94.483 279.003 94.2542 279.524C93.4322 281.361 92.2886 283.02 90.8876 284.421C90.3086 285.007 85.8914 287.288 85.2267 287.774H85.3626C87.3855 287.774 89.3151 287.409 91.102 286.737C93.2964 285.908 95.2691 284.621 96.8987 282.991C98.6927 281.19 100.072 278.974 100.873 276.494C101.38 274.914 101.659 273.227 101.659 271.483C101.659 265.343 98.264 260.004 93.2464 257.223C93.4253 256.273 93.5112 255.301 93.5112 254.3Z" fill="#78C2A4"/>
<path fill-rule="evenodd" clip-rule="evenodd" d="M22.7071 241.749C22.7071 238.811 23.4862 236.052 24.8442 233.672C23.2645 226.331 16.7317 220.827 8.91944 220.827C7.60431 220.827 6.31773 220.984 5.09538 221.285C10.8778 222.893 16.3985 227.814 17.6779 233.725C16.3128 236.105 15.5337 238.864 15.5337 241.802C15.5337 242.802 15.6267 243.774 15.7982 244.725C10.7878 247.498 7.39267 252.845 7.39267 258.985C7.39267 259.978 7.47856 260.958 7.65008 261.901C2.63962 264.682 -0.755493 270.028 -0.755493 276.161C-0.755493 277.912 0.0280678 283.585 0.778408 284.75C1.07864 285.222 1.40742 285.679 1.75048 286.115C3.9161 287.18 6.34628 287.773 8.91944 287.773C9.6843 287.773 10.4418 287.723 11.1781 287.623C9.37692 285.822 7.99732 283.599 7.19678 281.119C6.68933 279.539 6.41765 277.859 6.41765 276.108C6.41765 269.975 9.81275 264.629 14.8232 261.848C14.6517 260.905 14.5587 259.925 14.5587 258.932C14.5587 252.792 17.9538 247.445 22.9714 244.672C22.7999 243.722 22.7071 242.749 22.7071 241.749Z" fill="#78C2A4"/>
<path d="M87.1713 310H-9.17139C-10.2161 310 -11.0626 309.153 -11.0626 308.109C-11.0626 307.064 -10.2161 306.218 -9.17139 306.218H87.1713C88.216 306.218 89.0626 307.064 89.0626 308.109C89.0626 309.153 88.2158 310 87.1713 310Z" fill="#95D6A4"/>
<path d="M26.1861 260.959C25.8192 260.959 25.4486 260.853 25.1228 260.631C24.2597 260.042 24.0367 258.866 24.6252 258.003C25.6565 256.489 27.2854 255.599 29.0942 255.559C30.965 255.514 32.776 256.405 33.9206 257.935C34.5464 258.771 34.3757 259.956 33.5394 260.582C32.7034 261.208 31.518 261.037 30.8924 260.201C30.4783 259.647 29.8387 259.329 29.1779 259.34C28.7672 259.349 28.1864 259.494 27.7508 260.133C27.3846 260.67 26.7905 260.959 26.1861 260.959Z" fill="#78C2A4"/>
<path d="M35.8854 244.455C35.5185 244.455 35.1479 244.349 34.822 244.126C33.959 243.538 33.736 242.362 34.3244 241.499C35.3561 239.985 36.9847 239.094 38.7933 239.054C40.6793 239.013 42.4751 239.901 43.6196 241.431C44.2455 242.267 44.0747 243.452 43.2384 244.078C42.4022 244.704 41.2168 244.533 40.5915 243.696C40.1773 243.143 39.5323 242.826 38.8772 242.835C38.4664 242.844 37.8857 242.989 37.4501 243.629C37.0839 244.166 36.4901 244.455 35.8854 244.455Z" fill="#78C2A4"/>
<path d="M51.7924 260.959C51.188 260.959 50.5942 260.67 50.228 260.133C49.7929 259.495 49.2143 259.349 48.8053 259.34C48.7906 259.34 48.7755 259.339 48.7605 259.339C48.1165 259.339 47.4927 259.66 47.0839 260.204C46.4564 261.039 45.2709 261.207 44.4359 260.58C43.6012 259.952 43.4331 258.766 44.0606 257.932C45.1833 256.438 46.9326 255.557 48.7613 255.557C48.8051 255.557 48.8489 255.558 48.8932 255.559C50.6975 255.601 52.3232 256.492 53.3534 258.003C53.9416 258.866 53.7188 260.043 52.8558 260.631C52.53 260.853 52.1591 260.959 51.7924 260.959Z" fill="#78C2A4"/>
<path d="M21.1471 278.607C20.7807 278.607 20.4106 278.501 20.0848 278.279C19.2215 277.692 18.9975 276.515 19.5854 275.652C20.6119 274.143 22.2364 273.254 24.0419 273.212C25.9137 273.168 27.7262 274.054 28.8725 275.581C29.4998 276.416 29.331 277.601 28.4957 278.228C27.6607 278.856 26.4753 278.687 25.8483 277.852C25.4331 277.299 24.7928 276.977 24.13 276.993C23.721 277.003 23.1432 277.147 22.7125 277.78C22.3464 278.317 21.7518 278.607 21.1471 278.607Z" fill="#78C2A4"/>
<path d="M56.8386 278.607C56.2351 278.607 55.6421 278.319 55.2756 277.783C54.8405 277.147 54.259 277.002 53.8478 276.993C53.189 276.979 52.5452 277.299 52.1305 277.851C51.5037 278.687 50.3181 278.855 49.4831 278.228C48.6478 277.601 48.4792 276.416 49.1063 275.58C50.2509 274.056 52.0471 273.172 53.9317 273.212C55.7388 273.252 57.3667 274.14 58.3983 275.649C58.9877 276.511 58.7667 277.687 57.9046 278.277C57.5778 278.5 57.2062 278.607 56.8386 278.607Z" fill="#78C2A4"/>
<path d="M-2.89751 256.192C-3.26394 256.192 -3.63407 256.086 -3.9599 255.864C-4.82319 255.276 -5.04714 254.1 -4.45922 253.236C-3.43276 251.728 -1.8083 250.839 -0.00246477 250.797C1.87375 250.758 3.68156 251.639 4.82786 253.165C5.45491 254 5.28609 255.186 4.45085 255.813C3.61536 256.44 2.42992 256.271 1.80312 255.436C1.38821 254.883 0.737293 254.561 0.0856371 254.578C-0.32337 254.587 -0.901445 254.731 -1.33211 255.364C-1.6983 255.902 -2.29261 256.192 -2.89751 256.192Z" fill="#78C2A4"/>
<path d="M12.8835 239.855C12.3089 239.855 11.7414 239.594 11.3698 239.099C10.946 238.535 9.94419 238.136 8.96424 238.136C8.93791 238.136 8.91158 238.136 8.885 238.137C8.10784 238.154 7.47242 238.415 7.18548 238.835C6.59584 239.697 5.41951 239.919 4.55695 239.329C3.69488 238.74 3.47364 237.563 4.06329 236.7C5.05135 235.255 6.77844 234.401 8.80133 234.356C11.0686 234.309 13.2116 235.253 14.3943 236.828C15.0216 237.663 14.8528 238.849 14.0178 239.476C13.6774 239.731 13.2788 239.855 12.8835 239.855Z" fill="#78C2A4"/>
<path d="M80.8975 256.192C80.294 256.192 79.7009 255.903 79.3345 255.368C78.8994 254.731 78.3179 254.587 77.9064 254.578C77.2454 254.563 76.6043 254.884 76.1899 255.436C75.5624 256.271 74.3772 256.44 73.5422 255.813C72.707 255.186 72.5384 254 73.1652 253.165C74.3098 251.641 76.1136 250.76 77.9903 250.796C79.7977 250.837 81.4256 251.725 82.4572 253.233C83.0466 254.095 82.8256 255.272 81.9635 255.862C81.6367 256.085 81.2651 256.192 80.8975 256.192Z" fill="#78C2A4"/>
<path d="M72.3703 239.659C71.7669 239.659 71.1738 239.371 70.8073 238.835C70.3727 238.199 69.7934 238.055 69.3839 238.045C68.7281 238.03 68.0786 238.352 67.6603 238.906C67.0313 239.74 65.8453 239.906 65.0118 239.277C64.1778 238.648 64.0117 237.463 64.6405 236.629C65.7905 235.105 67.5899 234.223 69.472 234.264C71.2749 234.306 72.8999 235.194 73.93 236.7C74.5194 237.562 74.2984 238.739 73.4364 239.329C73.1096 239.552 72.7379 239.659 72.3703 239.659Z" fill="#78C2A4"/>
<path d="M88.3765 273.818C87.7721 273.818 87.178 273.529 86.8118 272.992C86.3765 272.353 85.7959 272.208 85.3852 272.199C84.7274 272.186 84.0851 272.506 83.6707 273.06C83.0451 273.896 81.8599 274.067 81.0237 273.441C80.1875 272.815 80.0169 271.63 80.6425 270.794C81.7871 269.265 83.5868 268.372 85.4691 268.418C87.2777 268.458 88.9063 269.349 89.9379 270.862C90.5259 271.725 90.3031 272.902 89.4401 273.49C89.1138 273.712 88.7432 273.818 88.3765 273.818Z" fill="#78C2A4"/>
<path d="M70.3242 192.676H64.7561C63.7115 192.676 62.8649 191.829 62.8649 190.785C62.8649 189.741 63.7115 188.894 64.7561 188.894H70.3242C71.3689 188.894 72.2155 189.741 72.2155 190.785C72.2155 191.829 71.3689 192.676 70.3242 192.676Z" fill="#FFD772"/>
<path d="M94.6334 218.773C93.5887 218.773 92.7422 217.926 92.7422 216.882V211.313C92.7422 210.269 93.5887 209.422 94.6334 209.422C95.6781 209.422 96.5246 210.269 96.5246 211.313V216.882C96.5246 217.926 95.6781 218.773 94.6334 218.773Z" fill="#FFD772"/>
<path d="M68.7874 207.651C68.3041 207.651 67.8208 207.467 67.4514 207.098C66.7121 206.36 66.7111 205.163 67.4489 204.424L71.3803 200.485C72.1178 199.746 73.3151 199.745 74.0548 200.483C74.7941 201.221 74.7951 202.418 74.0573 203.157L70.1259 207.096C69.7568 207.466 69.272 207.651 68.7874 207.651Z" fill="#FFD772"/>
<path d="M80.2947 215.564C80.0634 215.564 79.8286 215.521 79.6005 215.431C78.6292 215.048 78.1525 213.949 78.5362 212.978L80.5802 207.803C80.9639 206.831 82.0632 206.355 83.0338 206.739C84.0051 207.122 84.4818 208.221 84.0981 209.192L82.0541 214.367C81.7607 215.11 81.0483 215.564 80.2947 215.564Z" fill="#FFD772"/>
<path fill-rule="evenodd" clip-rule="evenodd" d="M54.5639 205.581C54.5639 202.879 53.0844 201.185 51.0116 200.384C51.6691 199.341 52.0479 198.097 52.0479 196.775C52.0479 193.022 49.0101 189.984 45.2648 189.984C44.5356 189.984 43.8424 190.099 43.1848 190.313C37.4452 182.851 26.195 184.194 21.7562 191.957C20.4982 194.151 19.7906 196.846 19.8979 200.005C16.7315 200.005 14.1657 202.364 14.1657 205.581C14.1657 205.781 14.1728 205.974 14.1942 206.167C14.4873 208.969 16.8602 211.156 19.7407 211.156H48.9887C52.0621 211.156 54.5639 208.318 54.5639 205.581Z" fill="#F9F6F6"/>
<path fill-rule="evenodd" clip-rule="evenodd" d="M19.8979 200.006C19.7906 196.846 20.4984 194.152 21.7562 191.957C21.6489 192.007 21.549 192.057 21.4488 192.114C19.6976 186.932 15.7879 184.373 11.7353 184.037C11.1277 183.987 10.5058 183.987 9.89841 184.037C4.35909 184.495 -0.865973 189.005 -0.608559 196.582C-3.33183 196.582 -5.53314 198.612 -5.53314 201.378C-5.53314 204.023 -3.38893 206.167 -0.744158 206.167H14.1942C14.1728 205.974 14.1657 205.781 14.1657 205.581C14.1657 202.364 16.7317 200.006 19.8979 200.006Z" fill="#F9F6F6"/>
<path fill-rule="evenodd" clip-rule="evenodd" d="M19.898 200.006C19.7907 196.846 20.4984 194.152 21.7562 191.957C21.6489 192.007 21.549 192.057 21.4488 192.114C19.6976 186.932 15.788 184.373 11.7353 184.037C11.1277 183.987 10.5058 183.987 9.89844 184.037C9.73405 184.052 9.56966 184.066 9.40527 184.087C10.3702 186.782 10.9133 189.813 10.9133 193.008C10.9133 198.033 9.57679 202.629 7.3681 206.167H14.194C14.1726 205.974 14.1655 205.781 14.1655 205.581C14.1657 202.364 16.7317 200.006 19.898 200.006Z" fill="#ECDAEC"/>
<path fill-rule="evenodd" clip-rule="evenodd" d="M48.9887 211.156C52.0621 211.156 54.5637 208.318 54.5637 205.581C54.5637 202.879 53.0842 201.185 51.0113 200.384C51.6689 199.341 52.0476 198.097 52.0476 196.775C52.0476 193.022 49.0098 189.984 45.2645 189.984C44.5354 189.984 43.8421 190.099 43.1846 190.313C40.8257 187.247 37.5379 185.667 34.1714 185.41C35.7296 188.619 36.6301 192.464 36.6301 196.603C36.6301 202.314 34.9074 207.468 32.1271 211.156H48.9887V211.156Z" fill="#ECDAEC"/>
</g>
<path d="M212.984 386.141H288.453V440.047H212.984V386.141Z" fill="#FDA2C6"/>
<path d="M212.984 386.141H288.453V396.922H212.984V386.141Z" fill="#596063"/>
<path d="M236.344 386.141L230.953 396.922H220.172L225.562 386.141H236.344Z" fill="#DADCDE"/>
<path d="M257.906 386.141L252.516 396.922H241.734L247.125 386.141H257.906Z" fill="#DADCDE"/>
<path d="M279.469 386.141L274.078 396.922H263.297L268.688 386.141H279.469Z" fill="#DADCDE"/>
<path d="M210.642 375.616L284.299 359.164L286.649 369.686L212.992 386.138L210.642 375.616Z" fill="#596063"/>
<path d="M235.783 381.055L228.175 371.706L217.652 374.053L225.261 383.402L235.783 381.055Z" fill="#DADCDE"/>
<path d="M256.829 376.361L249.22 367.012L238.697 369.359L246.306 378.708L256.829 376.361Z" fill="#DADCDE"/>
<path d="M270.265 362.317L277.874 371.666L267.351 374.013L259.743 364.664L270.265 362.317Z" fill="#DADCDE"/>
<path d="M308.219 440.047C308.219 441.476 308.787 442.847 309.798 443.858C310.809 444.869 312.18 445.437 313.609 445.438V452.625H263.297V445.438C264.727 445.438 266.098 444.87 267.109 443.859C268.12 442.848 268.688 441.477 268.688 440.047C268.688 438.617 268.12 437.246 267.109 436.235C266.098 435.224 264.727 434.656 263.297 434.656V427.469H313.609V434.656C312.18 434.657 310.809 435.225 309.798 436.236C308.787 437.246 308.219 438.617 308.219 440.047Z" fill="#D0D2D4"/>
<path d="M295.641 447.234C295.641 448.664 296.209 450.035 297.22 451.046C298.231 452.057 299.602 452.625 301.031 452.625V459.812H250.719V452.625C252.148 452.625 253.52 452.057 254.53 451.046C255.541 450.035 256.109 448.664 256.109 447.234C256.109 445.805 255.541 444.434 254.53 443.423C253.52 442.412 252.148 441.844 250.719 441.844V434.656H301.031V441.844C299.602 441.844 298.231 442.412 297.22 443.423C296.209 444.434 295.641 445.805 295.641 447.234Z" fill="#DADCDE"/>
<path d="M262.989 406.113C261.609 404.825 259.793 404.109 257.906 404.109C256.019 404.109 254.202 404.825 252.823 406.113L250.719 408.116L248.614 406.113C247.235 404.825 245.418 404.109 243.531 404.109C241.644 404.109 239.828 404.825 238.448 406.113C237.784 406.732 237.255 407.481 236.893 408.313C236.531 409.145 236.344 410.043 236.344 410.951C236.344 411.859 236.531 412.756 236.893 413.589C237.255 414.421 237.784 415.17 238.448 415.789L250.719 427.469L262.989 415.789C263.653 415.17 264.183 414.421 264.544 413.589C264.906 412.756 265.093 411.858 265.093 410.951C265.093 410.043 264.906 409.145 264.544 408.313C264.182 407.481 263.653 406.732 262.989 406.113Z" fill="#EB423F"/>
<path d="M313.609 425.672H290.25V386.141C290.25 385.664 290.061 385.207 289.724 384.87C289.387 384.533 288.93 384.344 288.453 384.344H229.294L287.034 371.464C287.264 371.413 287.482 371.316 287.675 371.181C287.869 371.045 288.033 370.873 288.16 370.674C288.286 370.475 288.372 370.252 288.413 370.02C288.454 369.787 288.448 369.549 288.397 369.319L286.05 358.796C285.998 358.566 285.902 358.348 285.767 358.155C285.631 357.962 285.459 357.797 285.26 357.671C285.061 357.544 284.838 357.458 284.606 357.417C284.374 357.377 284.135 357.382 283.905 357.434L210.246 373.864C209.781 373.968 209.376 374.252 209.12 374.654C208.865 375.057 208.78 375.544 208.883 376.009L211.187 386.338V440.047C211.187 440.523 211.377 440.98 211.714 441.317C212.051 441.654 212.508 441.844 212.984 441.844H248.922C248.922 442.32 249.111 442.777 249.448 443.114C249.785 443.451 250.242 443.641 250.719 443.641C251.672 443.641 252.586 444.019 253.26 444.693C253.934 445.367 254.312 446.281 254.312 447.234C254.312 448.187 253.934 449.102 253.26 449.776C252.586 450.449 251.672 450.828 250.719 450.828C250.242 450.828 249.785 451.017 249.448 451.354C249.111 451.691 248.922 452.148 248.922 452.625V459.812C248.922 460.289 249.111 460.746 249.448 461.083C249.785 461.42 250.242 461.609 250.719 461.609H301.031C301.508 461.609 301.965 461.42 302.302 461.083C302.639 460.746 302.828 460.289 302.828 459.812V454.422H313.609C314.086 454.422 314.543 454.233 314.88 453.896C315.217 453.559 315.406 453.102 315.406 452.625V445.437C315.406 444.961 315.217 444.504 314.88 444.167C314.543 443.83 314.086 443.641 313.609 443.641C312.656 443.641 311.742 443.262 311.068 442.588C310.394 441.914 310.016 441 310.016 440.047C310.016 439.094 310.394 438.18 311.068 437.506C311.742 436.832 312.656 436.453 313.609 436.453C314.086 436.453 314.543 436.264 314.88 435.927C315.217 435.59 315.406 435.133 315.406 434.656V427.469C315.406 426.992 315.217 426.535 314.88 426.198C314.543 425.861 314.086 425.672 313.609 425.672ZM286.656 395.125H276.985L280.579 387.937H286.656V395.125ZM214.781 387.937H222.655L219.061 395.125H214.781V387.937ZM226.673 387.937H233.436L229.843 395.125H223.079L226.673 387.937ZM237.454 387.937H244.218L240.624 395.125H233.86L237.454 387.937ZM248.235 387.937H254.999L251.405 395.125H244.642L248.235 387.937ZM259.017 387.937H265.78L262.186 395.125H255.423L259.017 387.937ZM269.798 387.937H276.561L272.968 395.125H266.204L269.798 387.937ZM264.123 372.892L257.521 374.365L252.448 368.132L259.049 366.66L264.123 372.892ZM262.972 365.785L269.573 364.313L274.645 370.545L268.044 372.018L262.972 365.785ZM253.6 375.24L246.999 376.712L241.926 370.48L248.527 369.007L253.6 375.24ZM243.077 377.587L236.476 379.059L231.404 372.827L238.006 371.354L243.077 377.587ZM232.555 379.934L225.954 381.407L220.881 375.174L227.482 373.702L232.555 379.934ZM284.498 368.348L278.567 369.67L273.494 363.438L282.933 361.333L284.498 368.348ZM216.96 376.049L222.032 382.281L214.347 383.996L212.782 376.981L216.96 376.049ZM248.922 434.656V438.25H214.781V398.719H286.656V425.672H263.297C262.82 425.672 262.363 425.861 262.026 426.198C261.689 426.535 261.5 426.992 261.5 427.469V432.859H250.719C250.242 432.859 249.785 433.049 249.448 433.386C249.111 433.723 248.922 434.18 248.922 434.656ZM252.516 454.194C254.059 453.796 255.427 452.897 256.403 451.637C257.379 450.377 257.909 448.828 257.909 447.234C257.909 445.64 257.379 444.092 256.403 442.832C255.427 441.572 254.059 440.672 252.516 440.274V436.453H277.672V458.016H252.516V454.194ZM299.234 458.016H290.25V456.219C290.25 455.742 290.061 455.285 289.724 454.948C289.387 454.611 288.93 454.422 288.453 454.422C287.977 454.422 287.52 454.611 287.183 454.948C286.846 455.285 286.656 455.742 286.656 456.219V458.016H281.266V436.453H286.656V438.25C286.656 438.727 286.846 439.184 287.183 439.521C287.52 439.858 287.977 440.047 288.453 440.047C288.93 440.047 289.387 439.858 289.724 439.521C290.061 439.184 290.25 438.727 290.25 438.25V436.453H299.234V440.274C297.691 440.672 296.323 441.572 295.347 442.832C294.371 444.092 293.841 445.64 293.841 447.234C293.841 448.828 294.371 450.377 295.347 451.637C296.323 452.897 297.691 453.796 299.234 454.194V458.016ZM311.812 433.087C310.269 433.485 308.902 434.384 307.925 435.644C306.949 436.904 306.419 438.453 306.419 440.047C306.419 441.641 306.949 443.189 307.925 444.449C308.902 445.709 310.269 446.609 311.812 447.007V450.828H301.031C300.078 450.828 299.164 450.449 298.49 449.776C297.816 449.102 297.438 448.187 297.438 447.234C297.438 446.281 297.816 445.367 298.49 444.693C299.164 444.019 300.078 443.641 301.031 443.641C301.508 443.641 301.965 443.451 302.302 443.114C302.639 442.777 302.828 442.32 302.828 441.844V434.656C302.828 434.18 302.639 433.723 302.302 433.386C301.965 433.049 301.508 432.859 301.031 432.859H265.094V429.266H311.812V433.087Z" fill="black"/>
<path d="M288.453 443.641C287.977 443.641 287.52 443.83 287.183 444.167C286.846 444.504 286.656 444.961 286.656 445.438V449.031C286.656 449.508 286.846 449.965 287.183 450.302C287.52 450.639 287.977 450.828 288.453 450.828C288.93 450.828 289.387 450.639 289.724 450.302C290.061 449.965 290.25 449.508 290.25 449.031V445.438C290.25 444.961 290.061 444.504 289.724 444.167C289.387 443.83 288.93 443.641 288.453 443.641Z" fill="black"/>
<path d="M250.719 429.266C250.258 429.267 249.814 429.09 249.48 428.771L237.209 417.092C236.369 416.305 235.7 415.354 235.242 414.298C234.784 413.242 234.548 412.103 234.548 410.952C234.548 409.801 234.784 408.663 235.242 407.606C235.7 406.55 236.369 405.6 237.209 404.813C238.923 403.207 241.183 402.314 243.531 402.314C245.88 402.314 248.14 403.207 249.853 404.813L250.719 405.635L251.584 404.811C253.298 403.206 255.558 402.312 257.906 402.312C260.254 402.312 262.514 403.206 264.228 404.811C265.068 405.598 265.738 406.549 266.195 407.605C266.653 408.661 266.889 409.799 266.889 410.95C266.889 412.101 266.653 413.24 266.195 414.296C265.738 415.352 265.068 416.303 264.228 417.089L251.957 428.769C251.623 429.088 251.18 429.266 250.719 429.266ZM243.531 405.906C242.103 405.895 240.726 406.435 239.687 407.414C239.199 407.865 238.81 408.412 238.544 409.021C238.278 409.63 238.141 410.287 238.141 410.951C238.141 411.616 238.278 412.273 238.544 412.881C238.81 413.49 239.199 414.037 239.687 414.488L250.719 424.988L261.75 414.487C262.238 414.036 262.627 413.489 262.893 412.881C263.159 412.272 263.296 411.615 263.296 410.951C263.296 410.287 263.159 409.629 262.893 409.021C262.627 408.412 262.238 407.865 261.75 407.414C260.705 406.445 259.332 405.906 257.906 405.906C256.481 405.906 255.108 406.445 254.062 407.414L251.958 409.417C251.624 409.735 251.18 409.913 250.719 409.913C250.258 409.913 249.814 409.735 249.48 409.417L247.375 407.414C246.336 406.435 244.959 405.895 243.531 405.906Z" fill="black"/>
<g clip-path="url(#clip3)">
<path fill-rule="evenodd" clip-rule="evenodd" d="M294.458 16H276.991C262.622 16 250.865 27.7501 250.865 42.1192V118.873C250.865 133.22 262.586 144.963 276.925 145H276.991H294.458H294.517C308.856 144.963 320.584 133.22 320.584 118.873V42.1192C320.583 27.7501 308.827 16 294.458 16V16Z" fill="#FFD772"/>
<path fill-rule="evenodd" clip-rule="evenodd" d="M294.458 27.419H285.724H276.991C274.777 27.419 272.68 27.9121 270.797 28.7949C265.779 31.1419 262.284 36.2409 262.284 42.1195V118.873C262.284 124.752 265.779 129.851 270.797 132.198C272.68 133.081 274.777 133.581 276.991 133.581H285.724H294.458C296.665 133.581 298.762 133.081 300.652 132.198C305.663 129.851 309.158 124.752 309.158 118.873V42.1192C309.158 36.2407 305.663 31.1419 300.652 28.7947C298.762 27.9118 296.665 27.419 294.458 27.419Z" fill="#CE9874"/>
<path fill-rule="evenodd" clip-rule="evenodd" d="M320.583 42.1192C320.583 27.7501 308.827 16 294.458 16H276.991C286.232 16 294.391 20.8635 299.034 28.1547C299.586 28.3386 300.13 28.5521 300.652 28.7949C305.663 31.1419 309.158 36.2409 309.158 42.1195V51.8242H316.603V50.5881C316.603 48.4029 318.391 46.6151 320.584 46.6151V42.1192H320.583Z" fill="#FDB440"/>
<path fill-rule="evenodd" clip-rule="evenodd" d="M320.583 106.314V57.0331C318.391 57.0331 316.603 55.2452 316.603 53.0527V51.824H309.157V64.0742V99.2728V111.523H316.603V110.287C316.603 108.102 318.391 106.314 320.583 106.314Z" fill="#FDB440"/>
<path fill-rule="evenodd" clip-rule="evenodd" d="M262.284 51.824H309.157V64.0742H262.284V51.824Z" fill="#F9F6F6"/>
<path fill-rule="evenodd" clip-rule="evenodd" d="M262.284 99.2728H309.157V111.523H262.284V99.2728Z" fill="#F9F6F6"/>
<path fill-rule="evenodd" clip-rule="evenodd" d="M316.603 112.752V111.523H309.157V118.873C309.157 124.752 305.663 129.851 300.652 132.198C300.13 132.448 299.585 132.661 299.034 132.845C294.398 140.122 286.269 144.978 277.05 145H294.457H294.516C308.856 144.963 320.583 133.22 320.583 118.873V116.732C318.391 116.732 316.603 114.945 316.603 112.752Z" fill="#FDB440"/>
<path fill-rule="evenodd" clip-rule="evenodd" d="M309.158 42.1192C309.158 36.2407 305.663 31.1419 300.652 28.7947C300.13 28.5518 299.586 28.3384 299.034 28.1545C297.592 27.6763 296.054 27.4188 294.458 27.4188H285.724H282.311C284.518 27.4188 286.622 27.9118 288.506 28.7947C293.516 31.1416 297.018 36.2407 297.018 42.1192V51.824H309.158V42.1192H309.158Z" fill="#C6875E"/>
<path fill-rule="evenodd" clip-rule="evenodd" d="M297.018 51.824H309.158V64.0742H297.018V51.824Z" fill="#ECDAEC"/>
<path fill-rule="evenodd" clip-rule="evenodd" d="M297.018 64.0742H309.158V99.2728H297.018V64.0742Z" fill="#C6875E"/>
<path fill-rule="evenodd" clip-rule="evenodd" d="M297.018 99.2728H309.158V111.523H297.018V99.2728Z" fill="#ECDAEC"/>
<path fill-rule="evenodd" clip-rule="evenodd" d="M309.158 111.523H297.018V118.873C297.018 124.752 293.516 129.851 288.506 132.198C286.622 133.081 284.518 133.581 282.311 133.581H285.724H294.457C296.054 133.581 297.592 133.316 299.034 132.846C299.585 132.662 300.13 132.448 300.652 132.198C305.663 129.851 309.157 124.752 309.157 118.873V111.523H309.158Z" fill="#C6875E"/>
<path d="M285.724 29.3497C284.658 29.3497 283.794 28.4853 283.794 27.4188V23.9093C283.794 22.8428 284.658 21.9783 285.724 21.9783C286.791 21.9783 287.655 22.8428 287.655 23.9093V27.4188C287.655 28.4853 286.791 29.3497 285.724 29.3497Z" fill="#ECDAEC"/>
<path d="M300.652 30.7256C300.158 30.7256 299.664 30.5372 299.287 30.1603C298.533 29.4059 298.533 28.1837 299.287 27.4293L301.767 24.9499C302.521 24.196 303.743 24.196 304.498 24.9499C305.252 25.7042 305.252 26.9264 304.498 27.6808L302.018 30.1603C301.641 30.5372 301.147 30.7256 300.652 30.7256Z" fill="#ECDAEC"/>
<path d="M270.796 30.7256C270.302 30.7256 269.808 30.5372 269.431 30.1603L266.951 27.6808C266.197 26.9264 266.197 25.7042 266.951 24.9499C267.706 24.196 268.928 24.196 269.682 24.9499L272.162 27.4293C272.916 28.1837 272.916 29.4059 272.162 30.1603C271.785 30.5372 271.291 30.7256 270.796 30.7256Z" fill="#ECDAEC"/>
<path d="M303.132 136.608C302.638 136.608 302.144 136.42 301.767 136.043L299.287 133.563C298.533 132.809 298.533 131.587 299.287 130.832C300.041 130.079 301.264 130.079 302.018 130.832L304.498 133.312C305.252 134.066 305.252 135.288 304.498 136.043C304.12 136.42 303.626 136.608 303.132 136.608Z" fill="#ECDAEC"/>
<path d="M268.317 136.608C267.823 136.608 267.328 136.42 266.951 136.043C266.197 135.288 266.197 134.066 266.951 133.312L269.431 130.832C270.185 130.079 271.408 130.079 272.162 130.832C272.916 131.587 272.916 132.809 272.162 133.563L269.682 136.043C269.305 136.42 268.811 136.608 268.317 136.608Z" fill="#ECDAEC"/>
<path d="M331.325 113.454H324.557C323.49 113.454 322.626 112.589 322.626 111.523C322.626 110.456 323.49 109.592 324.557 109.592H331.325C332.392 109.592 333.256 110.456 333.256 111.523C333.256 112.589 332.392 113.454 331.325 113.454ZM316.603 113.454H254.838C253.772 113.454 252.907 112.589 252.907 111.523C252.907 110.456 253.772 109.592 254.838 109.592H316.603C317.67 109.592 318.534 110.456 318.534 111.523C318.534 112.589 317.67 113.454 316.603 113.454ZM246.892 113.454H239.667C238.601 113.454 237.736 112.589 237.736 111.523C237.736 110.456 238.601 109.592 239.667 109.592H246.892C247.958 109.592 248.823 110.456 248.823 111.523C248.823 112.589 247.959 113.454 246.892 113.454Z" fill="#365E7D"/>
<path d="M331.325 53.7547H324.557C323.49 53.7547 322.626 52.8902 322.626 51.8237C322.626 50.7572 323.49 49.8927 324.557 49.8927H331.325C332.392 49.8927 333.256 50.7572 333.256 51.8237C333.256 52.8905 332.392 53.7547 331.325 53.7547ZM316.603 53.7547H254.89C253.823 53.7547 252.959 52.8902 252.959 51.8237C252.959 50.7572 253.823 49.8927 254.89 49.8927H316.603C317.67 49.8927 318.534 50.7572 318.534 51.8237C318.534 52.8905 317.67 53.7547 316.603 53.7547ZM246.936 53.7547H239.667C238.601 53.7547 237.736 52.8902 237.736 51.8237C237.736 50.7572 238.601 49.8927 239.667 49.8927H246.936C248.003 49.8927 248.867 50.7572 248.867 51.8237C248.867 52.8905 248.003 53.7547 246.936 53.7547Z" fill="#365E7D"/>
<path fill-rule="evenodd" clip-rule="evenodd" d="M254.89 50.1978C254.89 48.0127 253.102 46.2175 250.917 46.2175C250.894 46.2175 250.88 46.2175 250.865 46.2175C248.702 46.247 246.937 48.0275 246.937 50.1978V51.824V52.6627C246.937 54.8333 248.702 56.6063 250.865 56.6358H250.917C253.102 56.6358 254.89 54.8479 254.89 52.6627V51.824V50.1978Z" fill="#95D6A4"/>
<path fill-rule="evenodd" clip-rule="evenodd" d="M254.838 110.287C254.838 108.102 253.05 106.314 250.865 106.314C248.68 106.314 246.892 108.102 246.892 110.287V111.523V112.752C246.892 114.945 248.68 116.732 250.865 116.732C253.05 116.732 254.838 114.945 254.838 112.752V111.523V110.287Z" fill="#95D6A4"/>
<path fill-rule="evenodd" clip-rule="evenodd" d="M324.557 110.287C324.557 108.102 322.769 106.314 320.583 106.314C318.391 106.314 316.603 108.102 316.603 110.287V111.523V112.752C316.603 114.945 318.391 116.732 320.583 116.732C322.769 116.732 324.557 114.945 324.557 112.752V111.523V110.287Z" fill="#95D6A4"/>
<path fill-rule="evenodd" clip-rule="evenodd" d="M324.557 50.5879C324.557 48.4027 322.769 46.6148 320.583 46.6148C318.391 46.6148 316.603 48.4027 316.603 50.5879V51.824V53.0527C316.603 55.2452 318.391 57.0331 320.583 57.0331C322.769 57.0331 324.557 55.2452 324.557 53.0527V51.824V50.5879Z" fill="#95D6A4"/>
<path fill-rule="evenodd" clip-rule="evenodd" d="M238.056 47.3432L222.613 44.2162C221.745 44.0396 221.002 45.0328 221.002 46.0263V57.6216C221.002 58.6148 221.745 59.6007 222.613 59.4241L238.056 56.3044C238.932 56.1278 239.667 55.4952 239.667 54.502V51.8237V49.1454C239.667 48.1525 238.932 47.5198 238.056 47.3432Z" fill="#90D8F9"/>
<path fill-rule="evenodd" clip-rule="evenodd" d="M238.056 107.042L222.613 103.916C221.745 103.739 221.002 104.732 221.002 105.718V117.321C221.002 118.314 221.745 119.3 222.613 119.124L238.056 116.004C238.932 115.828 239.667 115.195 239.667 114.202V111.523V108.845C239.667 107.852 238.932 107.219 238.056 107.042Z" fill="#90D8F9"/>
<path fill-rule="evenodd" clip-rule="evenodd" d="M348.38 103.916L332.944 107.043C332.069 107.219 331.326 107.852 331.326 108.845V111.523V114.202C331.326 115.195 332.069 115.828 332.944 116.004L348.38 119.124C349.255 119.301 349.998 118.315 349.998 117.321V105.718C349.998 104.732 349.255 103.739 348.38 103.916Z" fill="#90D8F9"/>
<path fill-rule="evenodd" clip-rule="evenodd" d="M238.056 50.9484L222.613 54.0681C221.745 54.2447 221.002 53.2588 221.002 52.2656V57.6219C221.002 58.6151 221.745 59.601 222.613 59.4244L238.056 56.3047C238.932 56.1281 239.667 55.4954 239.667 54.5022V51.824V49.1457C239.667 50.1391 238.932 50.7718 238.056 50.9484Z" fill="#75CEF8"/>
<path fill-rule="evenodd" clip-rule="evenodd" d="M348.38 113.767L332.944 110.647C332.069 110.471 331.326 109.838 331.326 108.845V111.523V114.201C331.326 115.195 332.069 115.828 332.944 116.004L348.38 119.124C349.255 119.3 349.998 118.314 349.998 117.321V111.965C349.998 112.958 349.255 113.944 348.38 113.767Z" fill="#75CEF8"/>
<path fill-rule="evenodd" clip-rule="evenodd" d="M238.056 110.647L222.613 113.767C221.745 113.944 221.002 112.958 221.002 111.964V117.321C221.002 118.314 221.745 119.3 222.613 119.123L238.056 116.004C238.932 115.827 239.667 115.194 239.667 114.201V111.523V108.845C239.667 109.838 238.932 110.471 238.056 110.647Z" fill="#75CEF8"/>
<path fill-rule="evenodd" clip-rule="evenodd" d="M348.38 44.2162L332.944 47.3432C332.069 47.5198 331.326 48.1525 331.326 49.1459V51.8242V54.5025C331.326 55.4957 332.069 56.1286 332.944 56.3049L348.38 59.4246C349.255 59.6012 349.998 58.6153 349.998 57.6221V46.0268C349.998 45.0328 349.255 44.0396 348.38 44.2162Z" fill="#90D8F9"/>
<path fill-rule="evenodd" clip-rule="evenodd" d="M348.38 54.0681L332.944 50.9484C332.069 50.7718 331.326 50.1391 331.326 49.1457V51.824V54.5022C331.326 55.4954 332.069 56.1283 332.944 56.3047L348.38 59.4244C349.255 59.601 349.998 58.6151 349.998 57.6219V52.2656C349.998 53.2586 349.255 54.2445 348.38 54.0681Z" fill="#75CEF8"/>
<path d="M285.724 139.014C284.658 139.014 283.794 138.15 283.794 137.083V133.581C283.794 132.515 284.658 131.65 285.724 131.65C286.791 131.65 287.655 132.515 287.655 133.581V137.083C287.655 138.15 286.791 139.014 285.724 139.014Z" fill="#ECDAEC"/>
</g>
<g clip-path="url(#clip4)">
<path fill-rule="evenodd" clip-rule="evenodd" d="M160.948 80.2365L146.996 77.749L133.052 80.2365L127.928 86.4964L130.854 95.2435L147.672 100.308L163.139 95.2435L167.082 87.7288L160.948 80.2365Z" fill="#F9F6F6"/>
<path fill-rule="evenodd" clip-rule="evenodd" d="M157.889 59.3116H136.111L131.633 64.6209L134.403 70.9844L146.996 74.3854L159.597 70.9844L161.409 64.6209L157.889 59.3116Z" fill="#F9F6F6"/>
<path fill-rule="evenodd" clip-rule="evenodd" d="M149.609 75.6112L148.899 76.8687L146.998 80.2355H133.051L134.402 70.9846H146.998L148.899 74.3539L149.609 75.6112Z" fill="#365E7D"/>
<path fill-rule="evenodd" clip-rule="evenodd" d="M160.949 80.2355H146.998V70.9846H159.598L160.949 80.2355Z" fill="#365E7D"/>
<path fill-rule="evenodd" clip-rule="evenodd" d="M138.227 47.8761C139.356 40.0868 128.515 37.2725 124.802 42.9678L121.416 48.1508C126.035 51.9303 134.834 54.4328 136.111 59.3114L138.227 47.8761Z" fill="#365E7D"/>
<path fill-rule="evenodd" clip-rule="evenodd" d="M169.198 42.9681C165.485 37.2727 154.637 40.087 155.766 47.8764L157.889 59.3116C157.615 50.1633 165.805 46.0125 172.577 48.151L169.198 42.9681Z" fill="#365E7D"/>
<path fill-rule="evenodd" clip-rule="evenodd" d="M163.139 95.2435H130.854L127.891 102.439C127.698 104.11 128.901 107.57 128.314 109.144H165.679C168.767 103.686 167.163 97.9538 163.139 95.2435Z" fill="#ECDAEC"/>
<path fill-rule="evenodd" clip-rule="evenodd" d="M204.364 86.125L178.45 52.3538C176.883 50.2377 174.811 48.8563 172.576 48.151C165.805 46.0125 157.614 50.1633 157.889 59.3116L159.597 70.9846L160.948 80.2367L163.139 95.2438L164.438 104.102C164.297 103.152 164.245 102.12 164.245 101.162C164.245 88.5311 174.492 78.2837 187.122 78.2837C193.998 78.2837 200.169 81.3208 204.364 86.125Z" fill="#95D6A4"/>
<path fill-rule="evenodd" clip-rule="evenodd" d="M204.364 86.125C200.169 81.3208 193.998 78.2837 187.123 78.2837C174.492 78.2837 164.245 88.5308 164.245 101.162C164.245 102.157 164.312 103.137 164.438 104.102V104.11C164.661 105.855 165.084 107.54 165.678 109.144C168.916 117.84 177.299 124.04 187.123 124.04C199.753 124.04 210 113.793 210 101.162C210 96.4469 208.574 92.0734 206.131 88.4349L204.364 86.125Z" fill="#365E7D"/>
<path fill-rule="evenodd" clip-rule="evenodd" d="M200.555 101.162C200.555 93.7436 194.54 87.7288 187.123 87.7288C179.705 87.7288 173.69 93.7436 173.69 101.162C173.69 108.58 179.705 114.594 187.123 114.594C194.54 114.594 200.555 108.58 200.555 101.162Z" fill="#90D8F9"/>
<path fill-rule="evenodd" clip-rule="evenodd" d="M210 101.162C210 96.4464 208.574 92.0729 206.131 88.4344L204.364 86.125C200.169 81.3208 193.998 78.2837 187.123 78.2837C185.949 78.2837 184.799 78.3728 183.677 78.5436C189.157 79.3678 193.991 82.1376 197.474 86.125L199.241 88.4344C201.684 92.0729 203.109 96.4464 203.109 101.162C203.109 112.627 194.682 122.116 183.677 123.78C184.799 123.95 185.949 124.039 187.123 124.039C199.753 124.04 210 113.792 210 101.162Z" fill="#2B4D66"/>
<path fill-rule="evenodd" clip-rule="evenodd" d="M200.555 101.162C200.555 93.7436 194.54 87.7288 187.123 87.7288C185.652 87.7288 184.234 87.9665 182.905 88.4046C188.259 90.1718 192.12 95.2138 192.12 101.162C192.12 107.109 188.259 112.151 182.905 113.919C184.234 114.357 185.652 114.594 187.123 114.594C194.541 114.594 200.555 108.58 200.555 101.162Z" fill="#75CEF8"/>
<path fill-rule="evenodd" clip-rule="evenodd" d="M121.416 48.151C119.188 48.8563 117.109 50.2377 115.543 52.3538L89.6358 86.125C98.7467 90.9738 125.916 97.0184 129.747 101.162C130.423 101.897 129.68 103.137 129.562 104.102L130.854 95.2435L133.052 80.2365L134.403 70.9844L136.111 59.3114C136.385 50.1633 128.188 46.0125 121.416 48.151Z" fill="#95D6A4"/>
<path fill-rule="evenodd" clip-rule="evenodd" d="M123.926 85.9171C127.542 89.9641 129.747 95.3028 129.747 101.162C129.747 102.157 129.68 103.137 129.562 104.102L130.854 95.2435L133.051 80.2365L134.403 70.9843L136.111 59.3114C136.319 52.3388 131.603 48.2696 126.354 47.6756C129.762 48.5962 130.445 52.7471 130.356 55.7322L123.926 85.9171Z" fill="#78C2A4"/>
<path fill-rule="evenodd" clip-rule="evenodd" d="M129.747 101.162C129.747 88.5308 119.508 78.2835 106.87 78.2835C99.9941 78.2835 93.8238 81.3205 89.6358 86.1248L87.8612 88.4341C85.4256 92.0729 84 96.4464 84 101.162C84 113.792 94.2395 124.039 106.87 124.039C116.701 124.039 125.077 117.839 128.314 109.144C128.916 107.54 129.332 105.854 129.562 104.109V104.102C129.68 103.137 129.747 102.157 129.747 101.162Z" fill="#365E7D"/>
<path fill-rule="evenodd" clip-rule="evenodd" d="M120.302 101.162C120.302 93.7436 114.288 87.7288 106.87 87.7288C99.4522 87.7288 93.4451 93.7436 93.4451 101.162C93.4451 108.58 99.4522 114.594 106.87 114.594C114.288 114.594 120.302 108.58 120.302 101.162Z" fill="#90D8F9"/>
<path fill-rule="evenodd" clip-rule="evenodd" d="M129.747 101.162C129.747 96.4464 128.322 92.0729 125.879 88.4344L124.112 86.125C119.916 81.3208 113.753 78.2837 106.87 78.2837C105.704 78.2837 104.553 78.3728 103.425 78.5436C108.904 79.3678 113.746 82.1376 117.221 86.125L118.995 88.4344C121.431 92.0729 122.857 96.4464 122.857 101.162C122.857 112.627 114.429 122.116 103.432 123.78C104.553 123.95 105.704 124.039 106.87 124.039C119.508 124.04 129.747 113.792 129.747 101.162Z" fill="#2B4D66"/>
<path fill-rule="evenodd" clip-rule="evenodd" d="M120.302 101.162C120.302 93.7436 114.288 87.7288 106.87 87.7288C105.4 87.7288 103.982 87.9665 102.66 88.4046C108.013 90.1718 111.875 95.2138 111.875 101.162C111.875 107.109 108.006 112.151 102.66 113.919C103.982 114.357 105.4 114.594 106.87 114.594C114.288 114.594 120.302 108.58 120.302 101.162Z" fill="#75CEF8"/>
<path fill-rule="evenodd" clip-rule="evenodd" d="M138.227 47.8761C138.717 44.5123 136.972 42.0767 134.529 40.8516C134.871 41.8171 134.99 42.9159 134.811 44.1412L133.475 51.3217C135.168 53.2747 136.208 55.9552 136.111 59.3116L138.227 47.8761Z" fill="#2B4D66"/>
<path fill-rule="evenodd" clip-rule="evenodd" d="M169.198 42.9681C166.777 39.2552 161.327 39.1588 158.142 41.6982C160.391 41.7354 162.597 42.6858 163.911 44.6981L166.042 47.9652C168.158 47.4305 170.438 47.4753 172.577 48.1508L169.198 42.9681Z" fill="#2B4D66"/>
<path d="M145.096 70.9846H148.899V80.2355H145.096V70.9846Z" fill="#2B4D66"/>
<path fill-rule="evenodd" clip-rule="evenodd" d="M204.364 86.125L178.45 52.3538C176.883 50.2377 174.811 48.8563 172.576 48.151C168.878 46.9853 164.743 47.698 161.81 50.0743C165.574 50.1114 169.235 51.5073 171.262 54.0172L188.526 78.3283C194.837 78.7144 200.458 81.655 204.364 86.125Z" fill="#78C2A4"/>
</g>
<g clip-path="url(#clip5)">
<path d="M207.389 235.882H202.353L202.044 236.214V239.18C202.044 241.83 200.481 243.339 198.125 244.554C194.891 246.221 193.92 255.681 199.999 258.767L201.727 259.028L213.819 254.347V247.49L207.389 235.882Z" fill="#365E7D"/>
<path d="M206.494 244.554C208.292 243.627 209.626 242.526 210.158 240.88L207.389 235.883H202.354L202.044 236.214V239.18C202.044 241.83 200.481 243.339 198.125 244.554C194.891 246.221 193.92 255.681 199.999 258.767L201.727 259.028L206.326 257.247C202.587 253.323 203.686 246.001 206.494 244.554Z" fill="#2B4D66"/>
<path d="M243.375 244.554C241.013 243.336 239.457 241.826 239.457 239.181V236.167L238.963 235.701H233.681L227.615 247.964V254.17L240.098 259.028L241.259 258.677C247.212 255.507 246.577 246.205 243.375 244.554Z" fill="#365E7D"/>
<path d="M167.654 226.585H166.574L166.087 226.118H163.214V235.696L164.052 236.135H167.653C170.158 236.135 172.189 233.997 172.189 231.36C172.19 228.723 170.159 226.585 167.654 226.585Z" fill="#FFCEBE"/>
<path d="M132.839 226.585C130.337 226.59 128.31 228.726 128.31 231.36C128.31 233.998 130.341 236.135 132.846 236.135H136.447L137.033 235.055V226.118H133.674L132.839 226.585Z" fill="#FFCEBE"/>
<path d="M167.949 226.601C167.851 226.594 167.754 226.585 167.654 226.585H166.574L166.087 226.118H163.215V235.696L164.053 236.135H167.653C167.753 236.135 167.851 236.126 167.949 236.12V226.601H167.949Z" fill="#FFB1A0"/>
<path d="M133.045 231.36C133.045 228.919 134.787 226.909 137.033 226.623V226.118H133.674L132.839 226.585C130.337 226.59 128.31 228.726 128.31 231.36C128.31 233.998 130.341 236.135 132.846 236.135H136.447L136.521 235.999C134.528 235.496 133.045 233.613 133.045 231.36Z" fill="#FFB1A0"/>
<path d="M248.539 261.495C247.89 261.244 239.181 257.871 233.681 255.741L232.355 256.329H209.422L207.784 255.749C202.307 257.872 193.113 261.436 192.961 261.495C189.772 262.808 185.5 266.939 185.5 273.069V286.878H196.996V309H244.504V286.878H256C256 280.186 256 274.12 256 273.069C256 267.79 252.62 263.175 248.539 261.495Z" fill="#FF7F87"/>
<path d="M195.161 268.059C195.161 263.761 197.437 260.78 199.835 258.831C196.165 260.253 193.049 261.461 192.961 261.495C189.772 262.808 185.5 266.939 185.5 273.069V286.878H195.161C195.161 279.085 195.161 271.607 195.161 268.059Z" fill="#FF636E"/>
<path d="M178.039 261.495C177.397 261.247 168.874 257.946 163.367 255.813L162.234 256.356H138.142L137.121 255.77L122.461 261.496C119.272 262.808 115 266.939 115 273.069V286.878H126.496V309H174.004V286.878H185.5C185.5 280.186 185.5 274.12 185.5 273.069C185.5 267.79 182.12 263.175 178.039 261.495Z" fill="#80B4FB"/>
<path d="M124.652 268.059C124.652 263.737 126.954 260.747 129.366 258.798L122.461 261.495C119.272 262.808 115 266.939 115 273.069V286.878H124.652C124.652 279.085 124.652 271.607 124.652 268.059Z" fill="#61A2F9"/>
<path d="M239.433 227.522L239.016 227.102H234.043V235.817L234.317 236.385H238.071C240.576 236.385 242.607 234.354 242.607 231.849C242.607 229.818 241.272 228.1 239.433 227.522Z" fill="#FFCEBE"/>
<path d="M202.044 227.479L202.045 227.484C200.133 228.017 198.728 229.767 198.728 231.849C198.728 234.354 200.759 236.385 203.264 236.385H207.183L207.614 235.883V227.076H202.365L202.044 227.479Z" fill="#FFCEBE"/>
<path d="M238.485 227.102H234.042V235.817L234.317 236.385H238.071C238.211 236.385 238.349 236.376 238.485 236.364V227.102Z" fill="#FFB1A0"/>
<path d="M203.171 231.849C203.171 229.767 204.575 228.016 206.488 227.483L206.487 227.479L206.808 227.076H202.365L202.044 227.479L202.045 227.483C200.132 228.016 198.728 229.767 198.728 231.849C198.728 234.354 200.758 236.385 203.264 236.385H207.183L207.208 236.356C204.938 236.107 203.171 234.185 203.171 231.849Z" fill="#FFB1A0"/>
<path d="M203.902 171.349C199.275 166.79 191.794 166.923 187.201 171.516L186.003 172.714C185.725 172.992 185.274 172.992 184.997 172.714L183.799 171.516C179.206 166.923 171.725 166.79 167.098 171.349C162.435 175.944 162.414 183.45 167.035 188.071L184.451 205.487C185.031 206.067 185.969 206.067 186.549 205.487C190.399 201.636 203.296 188.74 203.965 188.071C208.586 183.45 208.565 175.944 203.902 171.349Z" fill="#FF7F87"/>
<path d="M180.263 188.071C175.641 183.45 175.662 175.944 180.326 171.349C180.838 170.845 181.387 170.401 181.962 170.011C177.389 166.963 171.15 167.358 167.098 171.349C162.435 175.944 162.414 183.45 167.035 188.071C167.704 188.74 180.601 201.637 184.45 205.487C185.03 206.067 185.969 206.067 186.549 205.487C187.744 204.292 189.811 202.225 192.114 199.922C187 194.808 180.724 188.532 180.263 188.071Z" fill="#FF636E"/>
<path d="M126.496 286.594H115V306.514C115 307.887 116.113 309 117.487 309H126.496V286.594Z" fill="#FFB1A0"/>
<path d="M174.004 286.594V309H183.013C184.387 309 185.5 307.887 185.5 306.514C185.5 305.339 185.5 295.371 185.5 286.594H174.004Z" fill="#FFCEBE"/>
<path d="M196.996 286.594H185.5V306.514C185.5 307.887 186.613 309 187.986 309H196.996C196.996 301.719 196.996 294.01 196.996 286.594Z" fill="#FFB1A0"/>
<path d="M244.504 286.594V309H253.513C254.887 309 256 307.887 256 306.514C256 305.339 256 295.371 256 286.594H244.504Z" fill="#FFCEBE"/>
<path d="M158.76 254.029C158.232 253.825 157.88 253.316 157.879 252.746L157.875 248.212L156.938 247.254H143.462L142.613 248.191V252.738C142.613 253.306 142.34 253.641 142.025 253.855L137.121 255.77C138.838 261.04 143.735 265.161 150.447 265.161C156.462 265.161 161.575 261.235 163.367 255.813C160.902 254.859 159.041 254.138 158.76 254.029Z" fill="#FFCEBE"/>
<path d="M150.244 247.254H143.462L142.613 248.191V252.738C142.613 253.306 142.34 253.641 142.025 253.855L137.121 255.77C138.82 260.986 143.636 265.074 150.244 265.157V247.254Z" fill="#FFB1A0"/>
<path d="M229.26 254.029C228.732 253.825 228.38 253.316 228.379 252.746L228.375 248.124L227.768 247.49H213.82L213.113 248.151V252.738C213.113 253.794 212.172 254.048 211.77 254.203C211.681 254.238 210.05 254.87 207.784 255.749C209.411 261.003 214.238 265.145 220.889 265.167C226.857 265.187 231.946 261.178 233.68 255.741C231.309 254.823 229.534 254.135 229.26 254.029Z" fill="#FFCEBE"/>
<path d="M220.751 247.49H213.82L213.113 248.151V252.738C213.113 253.794 212.172 254.048 211.77 254.203C211.681 254.238 210.05 254.87 207.784 255.749C209.399 260.966 214.172 265.084 220.751 265.164V247.49Z" fill="#FFB1A0"/>
<path d="M128.624 309V274.388C128.624 273.213 127.671 272.261 126.496 272.261C125.321 272.261 124.368 273.213 124.368 274.388V309H128.624Z" fill="#61A2F9"/>
<path d="M176.132 309V274.388C176.132 273.213 175.179 272.261 174.004 272.261C172.829 272.261 171.876 273.213 171.876 274.388V309H176.132Z" fill="#61A2F9"/>
<path d="M199.124 309V274.388C199.124 273.213 198.171 272.261 196.996 272.261C195.821 272.261 194.869 273.213 194.869 274.388V309H199.124Z" fill="#FF636E"/>
<path d="M246.632 309V274.388C246.632 273.213 245.679 272.261 244.504 272.261C243.329 272.261 242.376 273.213 242.376 274.388V309H246.632Z" fill="#FF636E"/>
<path d="M163.367 225.409L162.234 224.653L161.382 220.965H159.728L152.824 225.977H146.71L146.195 226.808V236.79C146.195 242.342 149.517 247.523 154.922 249.668C160.232 247.812 164.053 242.756 164.053 236.822V226.956L163.367 225.409Z" fill="#FFDECF"/>
<path d="M146.398 236.821V227.064L147.072 225.976H137.121L136.447 227.064V236.821C136.447 243.932 142.019 250.427 150.447 250.427C152.144 250.427 153.769 250.112 155.268 249.542C149.784 247.531 146.398 242.364 146.398 236.821Z" fill="#FFCEBE"/>
<path d="M163.169 209.154C161.869 209.254 160.676 208.436 160.426 207.157C160.004 205.002 158.937 202.863 154.77 202.863H140.31C135.003 202.863 130.701 207.165 130.701 212.472V223.018C130.701 225.252 132.513 227.064 134.747 227.064H151.158C154.829 227.064 158.017 225.004 159.635 221.979C159.76 221.744 160.116 221.836 160.116 222.102C160.116 224.831 162.349 227.064 165.078 227.064C166.508 227.064 167.679 225.893 167.679 224.463V213.458C167.679 210.865 165.417 208.981 163.169 209.154Z" fill="#365E7D"/>
<path d="M138.857 223.018V212.472C138.857 207.165 143.16 202.863 148.466 202.863H140.31C135.003 202.863 130.701 207.165 130.701 212.472V223.018C130.701 225.252 132.513 227.064 134.747 227.064H142.904C140.669 227.064 138.857 225.252 138.857 223.018Z" fill="#2B4D66"/>
<path d="M232.922 226.166H226.964L222.283 220.35H219.494L215.154 225.051V237.043C215.154 242.708 218.637 247.987 224.27 250.002C230.032 248.485 234.317 243.147 234.317 236.929V227.313L232.922 226.166Z" fill="#FFDECF"/>
<path d="M215.473 237.06V224.706L213.82 226.497H207.784L207.183 227.313V237.06C207.183 244.032 212.633 250.406 220.889 250.433C222.296 250.438 223.653 250.218 224.929 249.809C219.105 248.041 215.473 242.751 215.473 237.06Z" fill="#FFCEBE"/>
<path d="M220.504 202.865C210.223 202.997 202.044 211.566 202.044 221.848V227.484C202.433 227.375 202.841 227.313 203.264 227.313H207.183H210.73C211.193 227.313 213.795 227.101 213.604 227.116C216.897 226.863 219.744 224.376 220.529 221.144C220.554 221.04 220.644 220.967 220.75 220.967C220.857 220.967 220.947 221.04 220.972 221.144C221.756 224.368 224.578 226.827 227.822 227.102C230.178 227.302 230.21 227.313 230.635 227.313H234.317H238.071C238.555 227.313 239.02 227.39 239.457 227.53V221.569C239.457 211.156 230.949 202.73 220.504 202.865Z" fill="#365E7D"/>
<path d="M210.413 221.848C210.413 212.916 216.587 205.28 224.948 203.341C223.521 203.014 222.034 202.845 220.504 202.865C210.223 202.997 202.044 211.566 202.044 221.848V227.484C202.433 227.375 202.841 227.313 203.264 227.313H207.183H210.413V221.848Z" fill="#2B4D66"/>
</g>
<g clip-path="url(#clip6)">
<path fill-rule="evenodd" clip-rule="evenodd" d="M380.199 143.94V27.7662H367.842V143.94C367.842 144.432 368.241 144.831 368.732 144.831H379.308C379.8 144.831 380.199 144.432 380.199 143.94Z" fill="#CE9874"/>
<path fill-rule="evenodd" clip-rule="evenodd" d="M448.638 17.5409C448.975 18.3995 449.182 19.411 449.182 20.5967V27.7656H367.841C365.73 27.7656 364 26.036 364 23.9154V21.3822C364 19.2708 365.73 17.5412 367.841 17.5412H448.638V17.5409Z" fill="#FFD772"/>
<path fill-rule="evenodd" clip-rule="evenodd" d="M367.842 27.7662H380.199V39.0929H367.842V27.7662Z" fill="#C6875E"/>
</g>
<g clip-path="url(#clip7)">
<path fill-rule="evenodd" clip-rule="evenodd" d="M-54.7157 421.542L-51.7306 415.702C-51.3118 414.887 -50.3067 414.56 -49.4919 414.978L19.0876 450.014C19.9024 450.433 20.2299 451.438 19.811 452.253L16.826 458.101C16.4072 458.916 15.4097 459.244 14.5872 458.825L-53.9922 423.789C-54.807 423.37 -55.1345 422.365 -54.7157 421.542Z" fill="#365E7D"/>
<path fill-rule="evenodd" clip-rule="evenodd" d="M-78.0552 414.872L-72.3974 424.855L-53.8019 429.485C-51.1747 430.147 -48.936 430.399 -46.3165 429.241C-45.7682 428.997 -45.2961 428.731 -44.862 428.442C-43.4 427.459 -42.5243 426.21 -41.4506 424.626L-38.6559 420.499L-28.1702 405.056H-17.6998H-7.80807H9.44723C13.5288 405.056 17.4961 404.219 20.4355 401.135C21.6691 399.848 22.5296 398.348 23.0474 396.733L-9.01122 385.517H-18.9029H-33.7824C-54.9822 416.776 -42.2044 423.804 -78.0552 414.872Z" fill="#FFD772"/>
<path fill-rule="evenodd" clip-rule="evenodd" d="M23.0474 396.741H11.4499C10.9321 398.355 10.0716 399.855 8.84564 401.142C5.96722 404.158 2.11409 405.018 -1.8761 405.064H9.44721C13.5288 405.064 17.4961 404.226 20.4355 401.142C21.6615 399.855 22.5219 398.363 23.0474 396.741Z" fill="#FDB440"/>
<path fill-rule="evenodd" clip-rule="evenodd" d="M-55.5609 376.516C-57.9291 378.549 -61.5081 378.267 -63.5337 375.899C-65.5668 373.523 -65.2851 369.952 -62.9169 367.919C-60.541 365.878 -56.9697 366.16 -54.9441 368.535C-52.9109 370.911 -53.1851 374.475 -55.5609 376.516ZM-42.0521 343.323C-65.4679 350.222 -83.4009 371.65 -81.7408 396.741L-80.7509 411.712C-80.6443 413.455 -79.4944 414.598 -78.0552 414.872C-42.2044 423.804 -53.7943 427.992 -32.5792 396.741H-17.7074H-7.81569H23.0474H23.9536C27.5858 396.741 29.8551 395.926 29.8551 392.652C29.8551 391.334 29.7942 390.778 29.6799 389.484C27.8371 367.591 11.1834 349.551 -9.94785 343.323C-15.0803 341.815 -20.4792 341 -25.9924 341C-31.5208 341 -36.9121 341.815 -42.0521 343.323ZM-37.5898 362.702C-39.9657 364.736 -43.537 364.461 -45.5626 362.086C-47.5958 359.717 -47.3216 356.138 -44.9458 354.105C-42.5776 352.072 -38.9986 352.354 -36.973 354.722C-34.9398 357.098 -35.214 360.669 -37.5898 362.702Z" fill="#90D8F9"/>
<path fill-rule="evenodd" clip-rule="evenodd" d="M29.6799 389.484C27.8371 367.591 11.1834 349.551 -9.94786 343.323C-15.0803 341.815 -20.4792 341 -25.9924 341C-29.3353 341 -32.6325 341.297 -35.8536 341.868C-33.7519 342.241 -31.6807 342.729 -29.6551 343.323C-0.35313 351.958 6.13474 370.629 11.4499 396.741H23.0474H23.9535C27.5858 396.741 29.8551 395.926 29.8551 392.652C29.8551 391.334 29.7941 390.778 29.6799 389.484Z" fill="#75CEF8"/>
</g>
<g clip-path="url(#clip8)">
<path fill-rule="evenodd" clip-rule="evenodd" d="M312.331 227.223L278.656 239.928V275.263L317.206 268.975L312.331 227.223Z" fill="#95D6A4"/>
<path fill-rule="evenodd" clip-rule="evenodd" d="M330.114 267.121L312.331 227.223V267.302L330.114 267.121Z" fill="#78C2A4"/>
<path fill-rule="evenodd" clip-rule="evenodd" d="M312.331 274.908L278.656 286.976V303.752L312.331 291.046L313.606 282.919L312.331 274.908Z" fill="#95D6A4"/>
<path fill-rule="evenodd" clip-rule="evenodd" d="M312.331 267.302L278.656 275.263V286.976L312.331 278.356L315.113 272.141L312.331 267.302Z" fill="#FFD772"/>
<path fill-rule="evenodd" clip-rule="evenodd" d="M278.656 275.262V239.928L312.331 227.223L315.612 224.76L312.331 218.422L270 234.387V315.82L312.331 299.855L314.765 296.327L312.331 291.046L278.656 303.752V286.976V275.262Z" fill="#F9F6F6"/>
<path fill-rule="evenodd" clip-rule="evenodd" d="M354.662 243.195L326.028 232.395L333.062 264.824L354.662 256.784L357.653 249.591L354.662 243.195Z" fill="#78C2A4"/>
<path fill-rule="evenodd" clip-rule="evenodd" d="M330.918 271.228L312.331 278.356V291.046L335.554 299.811L330.918 271.228Z" fill="#78C2A4"/>
<path fill-rule="evenodd" clip-rule="evenodd" d="M388.337 259.102L372.8 260.746L354.662 267.649L350.808 283.962L354.662 307.019L391.785 297.566L388.337 259.102Z" fill="#90D8F9"/>
<path fill-rule="evenodd" clip-rule="evenodd" d="M391.785 227.237L354.662 243.195V256.784L372.669 254.937L388.337 248.157L391.785 227.237Z" fill="#95D6A4"/>
<path fill-rule="evenodd" clip-rule="evenodd" d="M397 218.422L354.662 234.387L352.837 237.777L354.662 243.195L388.337 230.49V248.157V259.102V294.313L354.662 307.019L351.554 311.126L354.662 315.82L397 299.855V218.422Z" fill="#F9F6F6"/>
<path fill-rule="evenodd" clip-rule="evenodd" d="M354.662 267.649L335.075 268.975L349.678 305.136L354.662 307.019V267.649Z" fill="#75CEF8"/>
<path fill-rule="evenodd" clip-rule="evenodd" d="M388.337 248.157L354.662 256.784L351.866 262.919L354.662 267.649L388.337 259.102V248.157Z" fill="#FFD772"/>
<path fill-rule="evenodd" clip-rule="evenodd" d="M334.945 261.84L326.028 232.395L319.958 228.048L312.331 227.223L323.964 264.549L312.331 267.302V278.356L327.477 274.48L335.554 299.811L341.24 304.15L349.678 305.136L339.537 271.489L354.662 267.649V256.784L334.945 261.84Z" fill="#FDB440"/>
<path fill-rule="evenodd" clip-rule="evenodd" d="M354.662 234.387L312.331 218.422V227.223L326.028 232.395L354.662 243.195V234.387Z" fill="#ECDAEC"/>
<path fill-rule="evenodd" clip-rule="evenodd" d="M335.554 299.811L312.331 291.046V299.855L354.662 315.82V307.019L349.678 305.136L335.554 299.811Z" fill="#ECDAEC"/>
<path fill-rule="evenodd" clip-rule="evenodd" d="M296.084 253.104L291.97 248.345C288.275 243.419 284.132 238.653 282.061 232.771C277.113 218.777 284.509 205.18 299.286 205.18C314.063 205.18 321.458 218.777 316.511 232.771C314.432 238.653 310.296 243.419 306.602 248.345L302.487 253.104C300.539 255.364 298.032 255.364 296.084 253.104Z" fill="#DD636E"/>
<path fill-rule="evenodd" clip-rule="evenodd" d="M309.057 224.195C309.057 218.798 304.682 214.423 299.285 214.423C293.889 214.423 289.514 218.798 289.514 224.195C289.514 229.598 293.889 233.974 299.285 233.974C304.682 233.974 309.057 229.599 309.057 224.195Z" fill="#F9F6F6"/>
<path fill-rule="evenodd" clip-rule="evenodd" d="M309.057 224.195C309.057 218.798 304.682 214.423 299.285 214.423C298.952 214.423 298.626 214.437 298.3 214.473C301.531 219.175 303.871 225.31 304.877 232.213C307.405 230.446 309.057 227.512 309.057 224.195Z" fill="#ECDAEC"/>
<path fill-rule="evenodd" clip-rule="evenodd" d="M316.511 232.771C321.458 218.776 314.062 205.18 299.285 205.18C295.99 205.18 293.063 205.854 290.557 207.056C293.469 208.715 296.091 211.257 298.3 214.474C298.626 214.437 298.952 214.423 299.285 214.423C304.682 214.423 309.057 218.798 309.057 224.195C309.057 227.512 307.405 230.446 304.877 232.214C305.044 233.351 305.174 234.51 305.268 235.691C305.377 237.081 305.435 238.494 305.435 239.928C305.435 243.818 305.022 247.556 304.261 251.055L306.601 248.345C309.665 244.26 313.033 240.283 315.286 235.691C315.743 234.749 316.156 233.778 316.511 232.771Z" fill="#DA4A54"/>
</g>
<g clip-path="url(#clip9)">
<path fill-rule="evenodd" clip-rule="evenodd" d="M375.051 425.345L352.594 423.379L330.348 425.345V450.116C330.348 455.551 334.796 460 340.226 460H365.173C367.112 460 368.925 459.43 370.454 458.454C368.549 457.034 367.306 454.758 367.306 452.209V437.203H375.051V425.345H375.051Z" fill="#365E7D"/>
<path fill-rule="evenodd" clip-rule="evenodd" d="M375.051 419.1V384.353C375.051 384.029 374.789 383.767 374.465 383.767H371.532H333.867H330.934C330.61 383.767 330.348 384.029 330.348 384.353V419.1L352.699 421.719L375.051 419.1Z" fill="#365E7D"/>
<path fill-rule="evenodd" clip-rule="evenodd" d="M360.228 399.343C360.228 394.946 356.663 391.381 352.26 391.381C348.992 391.381 346.186 393.349 344.96 396.16V402.526C346.186 405.343 348.992 407.311 352.26 407.311C356.663 407.311 360.228 403.746 360.228 399.343Z" fill="#F9F6F6"/>
<path fill-rule="evenodd" clip-rule="evenodd" d="M344.96 396.16H330.348H314.983C314.281 396.16 313.711 396.736 313.711 397.438V401.254C313.711 401.955 314.281 402.525 314.983 402.525H330.348H344.96H351.764C352.466 402.525 353.042 401.955 353.042 401.254V397.438C353.042 396.736 352.466 396.16 351.764 396.16H344.96Z" fill="#90D8F9"/>
<path fill-rule="evenodd" clip-rule="evenodd" d="M367.368 367.34L353.042 365.487L338.03 367.34V376.443L352.699 379.084L367.368 376.443V367.34Z" fill="#90D8F9"/>
<path fill-rule="evenodd" clip-rule="evenodd" d="M358.334 360H342.781C340.169 360 338.03 362.441 338.03 365.43V367.34H367.368V365.43C367.368 362.441 365.23 360 362.617 360H358.334Z" fill="#F9F6F6"/>
<path fill-rule="evenodd" clip-rule="evenodd" d="M330.348 419.1H375.051V425.345H330.348V419.1Z" fill="#90D8F9"/>
<path fill-rule="evenodd" clip-rule="evenodd" d="M367.368 376.443H338.03H335.39C334.551 376.443 333.867 377.128 333.867 377.966V383.767H371.532V377.966C371.532 377.128 370.847 376.443 370.009 376.443H367.368Z" fill="#F9F6F6"/>
<path fill-rule="evenodd" clip-rule="evenodd" d="M361.905 367.34H367.369V376.443H361.905V367.34Z" fill="#75CEF8"/>
<path fill-rule="evenodd" clip-rule="evenodd" d="M367.368 365.43C367.368 362.441 365.229 360 362.617 360H358.334H357.154C359.766 360 361.904 362.441 361.904 365.43V366.633V367.34H367.368V365.43Z" fill="#ECDAEC"/>
<path fill-rule="evenodd" clip-rule="evenodd" d="M371.532 377.966C371.532 377.128 370.847 376.443 370.009 376.443H367.368H364.557C364.916 376.449 365.241 376.575 365.498 376.78C365.846 377.059 366.068 377.487 366.068 377.966V383.767H371.532V377.966Z" fill="#ECDAEC"/>
<path fill-rule="evenodd" clip-rule="evenodd" d="M375.051 419.1V384.353C375.051 384.029 374.789 383.767 374.465 383.767H371.532H366.507V419.1H375.051Z" fill="#2B4D66"/>
<path fill-rule="evenodd" clip-rule="evenodd" d="M366.507 419.1H375.051V425.345H366.507V419.1Z" fill="#75CEF8"/>
<path fill-rule="evenodd" clip-rule="evenodd" d="M360.228 399.343C360.228 394.946 356.663 391.381 352.26 391.381C351.587 391.381 350.931 391.466 350.304 391.62C353.578 392.613 355.956 395.653 355.956 399.246C355.956 402.97 353.401 406.096 349.95 406.969C350.68 407.191 351.456 407.311 352.26 407.311C356.663 407.311 360.228 403.746 360.228 399.343Z" fill="#ECDAEC"/>
<path fill-rule="evenodd" clip-rule="evenodd" d="M330.348 399.89H314.983C314.281 399.89 313.711 399.314 313.711 398.613V401.254C313.711 401.955 314.281 402.526 314.983 402.526H330.348H344.96H351.764C352.466 402.526 353.042 401.955 353.042 401.254V398.613C353.042 399.314 352.466 399.89 351.764 399.89H344.96H344.315H330.348Z" fill="#75CEF8"/>
<path fill-rule="evenodd" clip-rule="evenodd" d="M366.507 425.345H375.051V437.203H366.507V425.345Z" fill="#2B4D66"/>
<path fill-rule="evenodd" clip-rule="evenodd" d="M397.602 436.102C397.602 435.771 397.334 435.504 397.004 435.504H372.536H364.819C364.488 435.504 364.22 435.771 364.22 436.102V451.633C364.22 454.371 365.549 456.812 367.602 458.34C368.994 459.379 370.722 460 372.587 460H389.229C393.832 460 397.596 456.236 397.602 451.639V451.633V439.388V436.102Z" fill="#FFD772"/>
</g>
<defs>
<clipPath id="clip0">
<rect width="126" height="126" fill="white" transform="translate(-62 15)"/>
</clipPath>
<clipPath id="clip1">
<rect width="128" height="128" fill="white" transform="translate(50 339)"/>
</clipPath>
<clipPath id="clip2">
<rect width="126" height="126" fill="white" transform="translate(-24 184)"/>
</clipPath>
<clipPath id="clip3">
<rect width="129" height="129" fill="white" transform="translate(221 16)"/>
</clipPath>
<clipPath id="clip4">
<rect width="126" height="126" fill="white" transform="translate(84 19)"/>
</clipPath>
<clipPath id="clip5">
<rect width="141" height="141" fill="white" transform="translate(115 168)"/>
</clipPath>
<clipPath id="clip6">
<rect width="152" height="152" fill="white" transform="translate(352)"/>
</clipPath>
<clipPath id="clip7">
<rect width="118" height="118" fill="white" transform="translate(-85 341)"/>
</clipPath>
<clipPath id="clip8">
<rect width="127" height="127" fill="white" transform="translate(270 197)"/>
</clipPath>
<clipPath id="clip9">
<rect width="100" height="100" fill="white" transform="translate(312 360)"/>
</clipPath>
</defs>
</svg>
